  0
SECTION
  2
HEADER
  9
$ACADVER
  1
AC1018
  9
$ACADMAINTVER
 70
     0
  9
$DWGCODEPAGE
  3
ANSI_1252
  9
$INSBASE
 10
0.0
 20
0.0
 30
0.0
  9
$EXTMIN
 10
-0.5
 20
-0.5
 30
-0.5
  9
$EXTMAX
 10
5.0
 20
5.0
 30
5.0
  9
$LIMMIN
 10
-0.5
 20
-0.5
  9
$LIMMAX
 10
5.0
 20
5.0
  9
$ORTHOMODE
 70
     0
  9
$REGENMODE
 70
     1
  9
$FILLMODE
 70
     1
  9
$QTEXTMODE
 70
     0
  9
$MIRRTEXT
 70
     1
  9
$LTSCALE
 40
1.0
  9
$ATTMODE
 70
     1
  9
$TEXTSIZE
 40
0.2
  9
$TRACEWID
 40
0.05
  9
$TEXTSTYLE
  7
Standard
  9
$CLAYER
  8
0
  9
$CELTYPE
  6
ByLayer
  9
$CECOLOR
 62
   256
  9
$CELTSCALE
 40
1.0
  9
$DISPSILH
 70
     0
  9
$DIMSCALE
 40
1.0
  9
$DIMASZ
 40
0.18
  9
$DIMEXO
 40
0.0625
  9
$DIMDLI
 40
0.38
  9
$DIMRND
 40
0.0
  9
$DIMDLE
 40
0.0
  9
$DIMEXE
 40
0.18
  9
$DIMTP
 40
0.0
  9
$DIMTM
 40
0.0
  9
$DIMTXT
 40
0.18
  9
$DIMCEN
 40
0.09
  9
$DIMTSZ
 40
0.0
  9
$DIMTOL
 70
     0
  9
$DIMLIM
 70
     0
  9
$DIMTIH
 70
     1
  9
$DIMTOH
 70
     1
  9
$DIMSE1
 70
     0
  9
$DIMSE2
 70
     0
  9
$DIMTAD
 70
     0
  9
$DIMZIN
 70
     0
  9
$DIMBLK
  1

  9
$DIMASO
 70
     1
  9
$DIMSHO
 70
     1
  9
$DIMPOST
  1

  9
$DIMAPOST
  1

  9
$DIMALT
 70
     0
  9
$DIMALTD
 70
     2
  9
$DIMALTF
 40
25.4
  9
$DIMLFAC
 40
1.0
  9
$DIMTOFL
 70
     0
  9
$DIMTVP
 40
0.0
  9
$DIMTIX
 70
     0
  9
$DIMSOXD
 70
     0
  9
$DIMSAH
 70
     0
  9
$DIMBLK1
  1

  9
$DIMBLK2
  1

  9
$DIMSTYLE
  2
Standard
  9
$DIMCLRD
 70
     0
  9
$DIMCLRE
 70
     0
  9
$DIMCLRT
 70
     0
  9
$DIMTFAC
 40
1.0
  9
$DIMGAP
 40
0.09
  9
$DIMJUST
 70
     0
  9
$DIMSD1
 70
     0
  9
$DIMSD2
 70
     0
  9
$DIMTOLJ
 70
     1
  9
$DIMTZIN
 70
     0
  9
$DIMALTZ
 70
     0
  9
$DIMALTTZ
 70
     0
  9
$DIMUPT
 70
     0
  9
$DIMDEC
 70
     4
  9
$DIMTDEC
 70
     4
  9
$DIMALTU
 70
     2
  9
$DIMALTTD
 70
     2
  9
$DIMTXSTY
  7
Standard
  9
$DIMAUNIT
 70
     0
  9
$DIMADEC
 70
     0
  9
$DIMALTRND
 40
0.0
  9
$DIMAZIN
 70
     0
  9
$DIMDSEP
 70
    46
  9
$DIMATFIT
 70
     3
  9
$DIMFRAC
 70
     0
  9
$DIMLDRBLK
  1

  9
$DIMLUNIT
 70
     2
  9
$DIMLWD
 70
    -2
  9
$DIMLWE
 70
    -2
  9
$DIMTMOVE
 70
     0
  9
$LUNITS
 70
     2
  9
$LUPREC
 70
     4
  9
$SKETCHINC
 40
0.1
  9
$FILLETRAD
 40
0.5
  9
$AUNITS
 70
     0
  9
$AUPREC
 70
     0
  9
$MENU
  1
.
  9
$ELEVATION
 40
0.0
  9
$PELEVATION
 40
0.0
  9
$THICKNESS
 40
0.0
  9
$LIMCHECK
 70
     0
  9
$CHAMFERA
 40
0.5
  9
$CHAMFERB
 40
0.5
  9
$CHAMFERC
 40
1.0
  9
$CHAMFERD
 40
0.0
  9
$SKPOLY
 70
     0
  9
$TDCREATE
 40
2456701.583543461
  9
$TDUCREATE
 40
2456701.541876794
  9
$TDUPDATE
 40
2456701.583543472
  9
$TDUUPDATE
 40
2456701.541876805
  9
$TDINDWG
 40
0.0000000116
  9
$TDUSRTIMER
 40
0.0000000116
  9
$USRTIMER
 70
     1
  9
$ANGBASE
 50
0.0
  9
$ANGDIR
 70
     0
  9
$PDMODE
 70
     0
  9
$PDSIZE
 40
0.0
  9
$PLINEWID
 40
0.0
  9
$SPLFRAME
 70
     0
  9
$SPLINETYPE
 70
     6
  9
$SPLINESEGS
 70
     8
  9
$HANDSEED
  5
14E
  9
$SURFTAB1
 70
     6
  9
$SURFTAB2
 70
     6
  9
$SURFTYPE
 70
     6
  9
$SURFU
 70
     6
  9
$SURFV
 70
     6
  9
$UCSBASE
  2

  9
$UCSNAME
  2

  9
$UCSORG
 10
0.0
 20
0.0
 30
0.0
  9
$UCSXDIR
 10
1.0
 20
0.0
 30
0.0
  9
$UCSYDIR
 10
0.0
 20
1.0
 30
0.0
  9
$UCSORTHOREF
  2

  9
$UCSORTHOVIEW
 70
     0
  9
$UCSORGTOP
 10
0.0
 20
0.0
 30
0.0
  9
$UCSORGBOTTOM
 10
0.0
 20
0.0
 30
0.0
  9
$UCSORGLEFT
 10
0.0
 20
0.0
 30
0.0
  9
$UCSORGRIGHT
 10
0.0
 20
0.0
 30
0.0
  9
$UCSORGFRONT
 10
0.0
 20
0.0
 30
0.0
  9
$UCSORGBACK
 10
0.0
 20
0.0
 30
0.0
  9
$PUCSBASE
  2

  9
$PUCSNAME
  2

  9
$PUCSORG
 10
0.0
 20
0.0
 30
0.0
  9
$PUCSXDIR
 10
1.0
 20
0.0
 30
0.0
  9
$PUCSYDIR
 10
0.0
 20
1.0
 30
0.0
  9
$PUCSORTHOREF
  2

  9
$PUCSORTHOVIEW
 70
     0
  9
$PUCSORGTOP
 10
0.0
 20
0.0
 30
0.0
  9
$PUCSORGBOTTOM
 10
0.0
 20
0.0
 30
0.0
  9
$PUCSORGLEFT
 10
0.0
 20
0.0
 30
0.0
  9
$PUCSORGRIGHT
 10
0.0
 20
0.0
 30
0.0
  9
$PUCSORGFRONT
 10
0.0
 20
0.0
 30
0.0
  9
$PUCSORGBACK
 10
0.0
 20
0.0
 30
0.0
  9
$USERI1
 70
     0
  9
$USERI2
 70
     0
  9
$USERI3
 70
     0
  9
$USERI4
 70
     0
  9
$USERI5
 70
     0
  9
$USERR1
 40
0.0
  9
$USERR2
 40
0.0
  9
$USERR3
 40
0.0
  9
$USERR4
 40
0.0
  9
$USERR5
 40
0.0
  9
$WORLDVIEW
 70
     1
  9
$SHADEDGE
 70
     3
  9
$SHADEDIF
 70
    70
  9
$TILEMODE
 70
     1
  9
$MAXACTVP
 70
    64
  9
$PINSBASE
 10
0.0
 20
0.0
 30
0.0
  9
$PLIMCHECK
 70
     0
  9
$PEXTMIN
 10
-0.5
 20
-0.5
 30
-0.5
  9
$PEXTMAX
 10
5.0
 20
5.0
 30
5.0
  9
$PLIMMIN
 10
-0.5
 20
-0.5
  9
$PLIMMAX
 10
5.0
 20
5.0
  9
$UNITMODE
 70
     0
  9
$VISRETAIN
 70
     1
  9
$PLINEGEN
 70
     0
  9
$PSLTSCALE
 70
     1
  9
$TREEDEPTH
 70
  3020
  9
$CMLSTYLE
  2
Standard
  9
$CMLJUST
 70
     0
  9
$CMLSCALE
 40
1.0
  9
$PROXYGRAPHICS
 70
     1
  9
$MEASUREMENT
 70
     1
  9
$CELWEIGHT
370
    -1
  9
$ENDCAPS
280
     0
  9
$JOINSTYLE
280
     0
  9
$LWDISPLAY
290
     0
  9
$INSUNITS
 70
     4
  9
$HYPERLINKBASE
  1

  9
$STYLESHEET
  1

  9
$XEDIT
290
     1
  9
$CEPSNTYPE
380
     0
  9
$PSTYLEMODE
290
     1
  9
$FINGERPRINTGUID
  2
{948CC154-8527-4685-B449-D71A9F9E542E}
  9
$VERSIONGUID
  2
{FAEB1C32-E019-11D5-929B-00C0DF256EC4}
  9
$EXTNAMES
290
     1
  9
$PSVPSCALE
 40
0.0
  9
$OLESTARTUP
290
     0
  9
$SORTENTS
280
   127
  9
$INDEXCTL
280
     0
  9
$HIDETEXT
280
     1
  9
$XCLIPFRAME
290
     0
  9
$HALOGAP
280
     0
  9
$OBSCOLOR
 70
   257
  9
$OBSLTYPE
280
     0
  9
$INTERSECTIONDISPLAY
280
     0
  9
$INTERSECTIONCOLOR
 70
   257
  9
$DIMASSOC
280
     2
  9
$PROJECTNAME
  1

  0
ENDSEC
  0
SECTION
  2
CLASSES
  0
CLASS
  1
ACDBDICTIONARYWDFLT
  2
AcDbDictionaryWithDefault
  3
ObjectDBX Classes
 90
        0
 91
        4
280
     0
281
     0
  0
CLASS
  1
VISUALSTYLE
  2
AcDbVisualStyle
  3
ObjectDBX Classes
 90
     4095
 91
        4
280
     0
281
     0
  0
CLASS
  1
MATERIAL
  2
AcDbMaterial
  3
ObjectDBX Classes
 90
     1153
 91
        4
280
     0
281
     0
  0
ENDSEC
  0
SECTION
  2
TABLES
  0
TABLE
  2
VPORT
  5
8
330
0
100
AcDbSymbolTable
 70
    17
  0
VPORT
  5
29
330
8
100
AcDbSymbolTableRecord
100
AcDbViewportTableRecord
  2
DUMMY
 70
     0
 10
0.0
 20
0.0
 11
1.0
 21
1.0
 12
10.429907
 22
4.5
 13
0.0
 23
0.0
 14
0.5
 24
0.5
 15
0.5
 25
0.5
 16
0.0
 26
0.0
 36
1.0
 17
0.0
 27
0.0
 37
0.0
 40
9.0
 41
1.972973
 42
50.0
 43
0.0
 44
0.0
 50
0.0
 51
0.0
 71
     0
 72
   100
 73
     1
 74
     3
 75
     0
 76
     0
 77
     0
 78
     0
281
     0
 65
     1
110
0.0
120
0.0
130
0.0
111
1.0
121
0.0
131
0.0
112
0.0
122
1.0
132
0.0
 79
     0
146
0.0
  0
VPORT
  5
116
330
8
100
AcDbSymbolTableRecord
100
AcDbViewportTableRecord
  2
*ACTIVE
 70
     0
 10
0.0
 20
0.0
 11
1.0
 21
1.0
 12
0.0
 22
0.0
 13
0.0
 23
0.0
 14
0.5
 24
0.5
 15
0.5
 25
0.5
 16
0.7188730927569433
 26
-0.5850486126764433
 36
0.3754192287502549
 17
0.0
 27
0.0
 37
0.0
 40
1475.654734
 41
0.012033
 42
50.0
 43
728.870234
 44
-728.870234
 50
0.0
 51
0.0
 71
     0
 72
   100
 73
     1
 74
     3
 75
     0
 76
     0
 77
     0
 78
     0
281
     0
 65
     1
110
0.0
120
0.0
130
0.0
111
1.0
121
0.0
131
0.0
112
0.0
122
1.0
132
0.0
 79
     0
146
0.0
  0
VPORT
  5
117
330
8
100
AcDbSymbolTableRecord
100
AcDbViewportTableRecord
  2
L1
 70
     0
 10
0.0
 20
0.0
 11
1.0
 21
1.0
 12
0.0
 22
0.0
 13
0.0
 23
0.0
 14
0.5
 24
0.5
 15
0.5
 25
0.5
 16
0.7188730927569433
 26
-0.5850486126764433
 36
0.3754192287502549
 17
0.0
 27
0.0
 37
0.0
 40
1475.654734
 41
0.012033
 42
50.0
 43
728.870234
 44
-728.870234
 50
0.0
 51
0.0
 71
     0
 72
   100
 73
     1
 74
     3
 75
     0
 76
     0
 77
     0
 78
     0
281
     0
 65
     1
110
0.0
120
0.0
130
0.0
111
1.0
121
0.0
131
0.0
112
0.0
122
1.0
132
0.0
 79
     0
146
0.0
  0
VPORT
  5
118
330
8
100
AcDbSymbolTableRecord
100
AcDbViewportTableRecord
  2
L2
 70
     0
 10
0.0
 20
0.0
 11
0.5
 21
1.0
 12
0.0
 22
0.0
 13
0.0
 23
0.0
 14
0.5
 24
0.5
 15
0.5
 25
0.5
 16
0.0
 26
-1.0
 36
0.0
 17
0.0
 27
0.0
 37
0.0
 40
1422.185822
 41
0.012486
 42
50.0
 43
734.916608
 44
-734.916608
 50
0.0
 51
0.0
 71
     0
 72
   100
 73
     1
 74
     3
 75
     0
 76
     0
 77
     0
 78
     0
281
     0
 65
     1
110
0.0
120
0.0
130
0.0
111
1.0
121
0.0
131
0.0
112
0.0
122
1.0
132
0.0
 79
     0
146
0.0
  0
VPORT
  5
119
330
8
100
AcDbSymbolTableRecord
100
AcDbViewportTableRecord
  2
L2
 70
     0
 10
0.5
 20
0.0
 11
1.0
 21
1.0
 12
0.0
 22
0.0
 13
0.0
 23
0.0
 14
0.5
 24
0.5
 15
0.5
 25
0.5
 16
1.0
 26
0.0
 36
0.0
 17
0.0
 27
0.0
 37
0.0
 40
1422.185822
 41
0.012486
 42
50.0
 43
718.693483
 44
-718.693483
 50
0.0
 51
0.0
 71
     0
 72
   100
 73
     1
 74
     3
 75
     0
 76
     0
 77
     0
 78
     0
281
     0
 65
     1
110
0.0
120
0.0
130
0.0
111
1.0
121
0.0
131
0.0
112
0.0
122
1.0
132
0.0
 79
     0
146
0.0
  0
VPORT
  5
11A
330
8
100
AcDbSymbolTableRecord
100
AcDbViewportTableRecord
  2
L3
 70
     0
 10
0.0
 20
0.5
 11
1.0
 21
1.0
 12
0.0
 22
0.0
 13
0.0
 23
0.0
 14
0.5
 24
0.5
 15
0.5
 25
0.5
 16
0.0
 26
0.0
 36
1.0
 17
0.0
 27
0.0
 37
0.0
 40
208.491667
 41
0.085168
 42
50.0
 43
711.092911
 44
-711.092911
 50
0.0
 51
0.0
 71
     0
 72
   100
 73
     1
 74
     3
 75
     0
 76
     0
 77
     0
 78
     0
281
     0
 65
     1
110
0.0
120
0.0
130
0.0
111
1.0
121
0.0
131
0.0
112
0.0
122
1.0
132
0.0
 79
     0
146
0.0
  0
VPORT
  5
11B
330
8
100
AcDbSymbolTableRecord
100
AcDbViewportTableRecord
  2
L3
 70
     0
 10
0.0
 20
0.0
 11
1.0
 21
0.5
 12
0.0
 22
0.0
 13
0.0
 23
0.0
 14
0.5
 24
0.5
 15
0.5
 25
0.5
 16
0.0
 26
-1.0
 36
0.0
 17
0.0
 27
0.0
 37
0.0
 40
1422.185822
 41
0.012486
 42
50.0
 43
734.916608
 44
-734.916608
 50
0.0
 51
0.0
 71
     0
 72
   100
 73
     1
 74
     3
 75
     0
 76
     0
 77
     0
 78
     0
281
     0
 65
     1
110
0.0
120
0.0
130
0.0
111
1.0
121
0.0
131
0.0
112
0.0
122
1.0
132
0.0
 79
     0
146
0.0
  0
VPORT
  5
11C
330
8
100
AcDbSymbolTableRecord
100
AcDbViewportTableRecord
  2
L4
 70
     0
 10
0.0
 20
0.5
 11
0.5
 21
1.0
 12
0.0
 22
0.0
 13
0.0
 23
0.0
 14
0.5
 24
0.5
 15
0.5
 25
0.5
 16
0.0
 26
0.0
 36
1.0
 17
0.0
 27
0.0
 37
0.0
 40
208.491667
 41
0.085168
 42
50.0
 43
711.092911
 44
-711.092911
 50
0.0
 51
0.0
 71
     0
 72
   100
 73
     1
 74
     3
 75
     0
 76
     0
 77
     0
 78
     0
281
     0
 65
     1
110
0.0
120
0.0
130
0.0
111
1.0
121
0.0
131
0.0
112
0.0
122
1.0
132
0.0
 79
     0
146
0.0
  0
VPORT
  5
11D
330
8
100
AcDbSymbolTableRecord
100
AcDbViewportTableRecord
  2
L4
 70
     0
 10
0.0
 20
0.0
 11
0.5
 21
0.5
 12
0.0
 22
0.0
 13
0.0
 23
0.0
 14
0.5
 24
0.5
 15
0.5
 25
0.5
 16
0.0
 26
-1.0
 36
0.0
 17
0.0
 27
0.0
 37
0.0
 40
1422.185822
 41
0.012486
 42
50.0
 43
734.916608
 44
-734.916608
 50
0.0
 51
0.0
 71
     0
 72
   100
 73
     1
 74
     3
 75
     0
 76
     0
 77
     0
 78
     0
281
     0
 65
     1
110
0.0
120
0.0
130
0.0
111
1.0
121
0.0
131
0.0
112
0.0
122
1.0
132
0.0
 79
     0
146
0.0
  0
VPORT
  5
11E
330
8
100
AcDbSymbolTableRecord
100
AcDbViewportTableRecord
  2
L4
 70
     0
 10
0.5
 20
0.0
 11
1.0
 21
0.5
 12
0.0
 22
0.0
 13
0.0
 23
0.0
 14
0.5
 24
0.5
 15
0.5
 25
0.5
 16
1.0
 26
0.0
 36
0.0
 17
0.0
 27
0.0
 37
0.0
 40
1422.185822
 41
0.012486
 42
50.0
 43
718.693483
 44
-718.693483
 50
0.0
 51
0.0
 71
     0
 72
   100
 73
     1
 74
     3
 75
     0
 76
     0
 77
     0
 78
     0
281
     0
 65
     1
110
0.0
120
0.0
130
0.0
111
1.0
121
0.0
131
0.0
112
0.0
122
1.0
132
0.0
 79
     0
146
0.0
  0
VPORT
  5
11F
330
8
100
AcDbSymbolTableRecord
100
AcDbViewportTableRecord
  2
L4
 70
     0
 10
0.5
 20
0.5
 11
1.0
 21
1.0
 12
0.0
 22
0.0
 13
0.0
 23
0.0
 14
0.5
 24
0.5
 15
0.5
 25
0.5
 16
0.5773502691896258
 26
-0.5773502691896258
 36
0.5773502691896258
 17
0.0
 27
0.0
 37
0.0
 40
1397.872246
 41
0.012703
 42
50.0
 43
728.367021
 44
-728.367021
 50
0.0
 51
0.0
 71
     0
 72
   100
 73
     1
 74
     3
 75
     0
 76
     0
 77
     0
 78
     0
281
     0
 65
     1
110
0.0
120
0.0
130
0.0
111
1.0
121
0.0
131
0.0
112
0.0
122
1.0
132
0.0
 79
     0
146
0.0
  0
VPORT
  5
120
330
8
100
AcDbSymbolTableRecord
100
AcDbViewportTableRecord
  2
L6
 70
     0
 10
0.0
 20
0.5
 11
0.333333
 21
1.0
 12
0.0
 22
0.0
 13
0.0
 23
0.0
 14
0.5
 24
0.5
 15
0.5
 25
0.5
 16
0.7188730927569433
 26
-0.5850486126764433
 36
0.3754192287502549
 17
0.0
 27
0.0
 37
0.0
 40
1475.654734
 41
0.012033
 42
50.0
 43
728.870234
 44
-728.870234
 50
0.0
 51
0.0
 71
     0
 72
   100
 73
     1
 74
     3
 75
     0
 76
     0
 77
     0
 78
     0
281
     0
 65
     1
110
0.0
120
0.0
130
0.0
111
1.0
121
0.0
131
0.0
112
0.0
122
1.0
132
0.0
 79
     0
146
0.0
  0
VPORT
  5
121
330
8
100
AcDbSymbolTableRecord
100
AcDbViewportTableRecord
  2
L6
 70
     0
 10
0.0
 20
0.0
 11
0.333333
 21
0.5
 12
0.0
 22
0.0
 13
0.0
 23
0.0
 14
0.5
 24
0.5
 15
0.5
 25
0.5
 16
-1.0
 26
0.0
 36
0.0
 17
0.0
 27
0.0
 37
0.0
 40
1422.185822
 41
0.012486
 42
50.0
 43
718.693483
 44
-718.693483
 50
0.0
 51
0.0
 71
     0
 72
   100
 73
     1
 74
     3
 75
     0
 76
     0
 77
     0
 78
     0
281
     0
 65
     1
110
0.0
120
0.0
130
0.0
111
1.0
121
0.0
131
0.0
112
0.0
122
1.0
132
0.0
 79
     0
146
0.0
  0
VPORT
  5
122
330
8
100
AcDbSymbolTableRecord
100
AcDbViewportTableRecord
  2
L6
 70
     0
 10
0.333333
 20
0.5
 11
0.666667
 21
1.0
 12
0.0
 22
0.0
 13
0.0
 23
0.0
 14
0.5
 24
0.5
 15
0.5
 25
0.5
 16
0.0
 26
0.0
 36
1.0
 17
0.0
 27
0.0
 37
0.0
 40
208.491667
 41
0.085168
 42
50.0
 43
711.092911
 44
-711.092911
 50
0.0
 51
0.0
 71
     0
 72
   100
 73
     1
 74
     3
 75
     0
 76
     0
 77
     0
 78
     0
281
     0
 65
     1
110
0.0
120
0.0
130
0.0
111
1.0
121
0.0
131
0.0
112
0.0
122
1.0
132
0.0
 79
     0
146
0.0
  0
VPORT
  5
123
330
8
100
AcDbSymbolTableRecord
100
AcDbViewportTableRecord
  2
L6
 70
     0
 10
0.333333
 20
0.0
 11
0.666667
 21
0.5
 12
0.0
 22
0.0
 13
0.0
 23
0.0
 14
0.5
 24
0.5
 15
0.5
 25
0.5
 16
0.0
 26
-1.0
 36
0.0
 17
0.0
 27
0.0
 37
0.0
 40
1422.185822
 41
0.012486
 42
50.0
 43
734.916608
 44
-734.916608
 50
0.0
 51
0.0
 71
     0
 72
   100
 73
     1
 74
     3
 75
     0
 76
     0
 77
     0
 78
     0
281
     0
 65
     1
110
0.0
120
0.0
130
0.0
111
1.0
121
0.0
131
0.0
112
0.0
122
1.0
132
0.0
 79
     0
146
0.0
  0
VPORT
  5
124
330
8
100
AcDbSymbolTableRecord
100
AcDbViewportTableRecord
  2
L6
 70
     0
 10
0.666667
 20
0.5
 11
1.0
 21
1.0
 12
0.0
 22
0.0
 13
0.0
 23
0.0
 14
0.5
 24
0.5
 15
0.5
 25
0.5
 16
0.5773502691896258
 26
-0.5773502691896258
 36
0.5773502691896258
 17
0.0
 27
0.0
 37
0.0
 40
1397.872246
 41
0.012703
 42
50.0
 43
728.367021
 44
-728.367021
 50
0.0
 51
0.0
 71
     0
 72
   100
 73
     1
 74
     3
 75
     0
 76
     0
 77
     0
 78
     0
281
     0
 65
     1
110
0.0
120
0.0
130
0.0
111
1.0
121
0.0
131
0.0
112
0.0
122
1.0
132
0.0
 79
     0
146
0.0
  0
VPORT
  5
125
330
8
100
AcDbSymbolTableRecord
100
AcDbViewportTableRecord
  2
L6
 70
     0
 10
0.666667
 20
0.0
 11
1.0
 21
0.5
 12
0.0
 22
0.0
 13
0.0
 23
0.0
 14
0.5
 24
0.5
 15
0.5
 25
0.5
 16
1.0
 26
0.0
 36
0.0
 17
0.0
 27
0.0
 37
0.0
 40
1422.185822
 41
0.012486
 42
50.0
 43
718.693483
 44
-718.693483
 50
0.0
 51
0.0
 71
     0
 72
   100
 73
     1
 74
     3
 75
     0
 76
     0
 77
     0
 78
     0
281
     0
 65
     1
110
0.0
120
0.0
130
0.0
111
1.0
121
0.0
131
0.0
112
0.0
122
1.0
132
0.0
 79
     0
146
0.0
  0
ENDTAB
  0
TABLE
  2
LTYPE
  5
5
330
0
100
AcDbSymbolTable
 70
     7
  0
LTYPE
  5
14
330
5
100
AcDbSymbolTableRecord
100
AcDbLinetypeTableRecord
  2
BYBLOCK
 70
     0
  3

 72
    65
 73
     0
 40
0.0
  0
LTYPE
  5
15
330
5
100
AcDbSymbolTableRecord
100
AcDbLinetypeTableRecord
  2
BYLAYER
 70
     0
  3

 72
    65
 73
     0
 40
0.0
  0
LTYPE
  5
16
330
5
100
AcDbSymbolTableRecord
100
AcDbLinetypeTableRecord
  2
CONTINUOUS
 70
     0
  3
Solid line
 72
    65
 73
     0
 40
0.0
  0
LTYPE
  5
3F
330
5
100
AcDbSymbolTableRecord
100
AcDbLinetypeTableRecord
  2
DASHED
 70
     0
  3
__ __ __ __ __ __ __ __ __
 72
    65
 73
     2
 40
25.72
 49
12.86
 74
     4
 75
     0
340
0
 46
0.0
 50
0.0
 44
0.0
 45
0.0
 49
-12.86
 74
     4
 75
     0
340
0
 46
0.0
 50
0.0
 44
0.0
 45
0.0
  0
LTYPE
  5
40
330
5
100
AcDbSymbolTableRecord
100
AcDbLinetypeTableRecord
  2
HIDDEN
 70
     0
  3
_ _ _ _ _ _ _ _ _ _ _ _ _ _ _
 72
    65
 73
     2
 40
0.5
 49
0.25
 74
     4
 75
     0
340
0
 46
0.0
 50
0.0
 44
0.0
 45
0.0
 49
-0.25
 74
     4
 75
     0
340
0
 46
0.0
 50
0.0
 44
0.0
 45
0.0
  0
LTYPE
  5
41
330
5
100
AcDbSymbolTableRecord
100
AcDbLinetypeTableRecord
  2
PHANTOM
 70
     0
  3
____ _ _ ____ _ _ _____ _ _ ____
 72
    65
 73
     6
 40
50.5
 49
18.0
 74
     4
 75
     0
340
0
 46
0.0
 50
0.0
 44
0.0
 45
0.0
 49
-6.5
 74
     4
 75
     0
340
0
 46
0.0
 50
0.0
 44
0.0
 45
0.0
 49
6.5
 74
     4
 75
     0
340
0
 46
0.0
 50
0.0
 44
0.0
 45
0.0
 49
-6.5
 74
     4
 75
     0
340
0
 46
0.0
 50
0.0
 44
0.0
 45
0.0
 49
6.5
 74
     4
 75
     0
340
0
 46
0.0
 50
0.0
 44
0.0
 45
0.0
 49
-6.5
 74
     4
 75
     0
340
0
 46
0.0
 50
0.0
 44
0.0
 45
0.0
  0
LTYPE
  5
42
330
5
100
AcDbSymbolTableRecord
100
AcDbLinetypeTableRecord
  2
CENTER
 70
     0
  3
____ _ ____ _ ____ _ ____
 72
    65
 73
     4
 40
47.4
 49
22.0
 74
     4
 75
     0
340
0
 46
0.0
 50
0.0
 44
0.0
 45
0.0
 49
-8.5
 74
     4
 75
     0
340
0
 46
0.0
 50
0.0
 44
0.0
 45
0.0
 49
8.5
 74
     4
 75
     0
340
0
 46
0.0
 50
0.0
 44
0.0
 45
0.0
 49
-8.5
 74
     4
 75
     0
340
0
 46
0.0
 50
0.0
 44
0.0
 45
0.0
  0
LTYPE
  5
43
330
5
100
AcDbSymbolTableRecord
100
AcDbLinetypeTableRecord
  2
DOT
 70
     0
  3
.........................
 72
    65
 73
     2
 40
10.0
 49
0.0
 74
     4
 75
     0
340
0
 46
0.0
 50
0.0
 44
0.0
 45
0.0
 49
-10.0
 74
     4
 75
     0
340
0
 46
0.0
 50
0.0
 44
0.0
 45
0.0
  0
LTYPE
  5
44
330
5
100
AcDbSymbolTableRecord
100
AcDbLinetypeTableRecord
  2
DASHDOT
 70
     0
  3
_._._._._._._._._._._._._._._._.
 72
    65
 73
     4
 40
70.0
 49
31.0
 74
     4
 75
     0
340
0
 46
0.0
 50
0.0
 44
0.0
 45
0.0
 49
-13.0
 74
     4
 75
     0
340
0
 46
0.0
 50
0.0
 44
0.0
 45
0.0
 49
13.0
 74
     4
 75
     0
340
0
 46
0.0
 50
0.0
 44
0.0
 45
0.0
 49
-13.0
 74
     4
 75
     0
340
0
 46
0.0
 50
0.0
 44
0.0
 45
0.0
  0
ENDTAB
  0
TABLE
  2
LAYER
  5
2
330
0
100
AcDbSymbolTable
 70
     2
  0
LAYER
  5
10
330
2
100
AcDbSymbolTableRecord
100
AcDbLayerTableRecord
  2
0
 70
     0
 62
     7
  6
CONTINUOUS
370
    -3
390
F
  0
LAYER
  5
46
330
2
100
AcDbSymbolTableRecord
100
AcDbLayerTableRecord
  2
1
 70
     0
 62
     7
420
 16777215
  6
CONTINUOUS
370
    -3
390
F
  0
ENDTAB
  0
TABLE
  2
STYLE
  5
3
330
0
100
AcDbSymbolTable
 70
     1
  0
STYLE
  5
11
330
3
100
AcDbSymbolTableRecord
100
AcDbTextStyleTableRecord
  2
Standard
 70
     0
 40
0.0
 41
1.0
 50
0.0
 71
     0
 42
0.2
  3
txt
  4

  0
ENDTAB
  0
TABLE
  2
VIEW
  5
6
330
0
100
AcDbSymbolTable
 70
     1
  0
VIEW
  5
115
330
6
100
AcDbSymbolTableRecord
100
AcDbViewTableRecord
  2
TOP
 70
     0
 40
208.491667
 10
0.0
 20
0.0
 41
371.210417
 11
0.0
 21
0.0
 31
1.0
 12
0.0
 22
0.0
 32
0.0
 42
50.0
 43
711.092911
 44
-711.092911
 50
0.0
 71
     0
281
     0
 72
     0
  0
ENDTAB
  0
TABLE
  2
UCS
  5
7
330
0
100
AcDbSymbolTable
 70
     0
  0
ENDTAB
  0
TABLE
  2
APPID
  5
9
330
0
100
AcDbSymbolTable
 70
     1
  0
APPID
  5
12
330
9
100
AcDbSymbolTableRecord
100
AcDbRegAppTableRecord
  2
ACAD
 70
     0
  0
ENDTAB
  0
TABLE
  2
DIMSTYLE
  5
A
330
0
100
AcDbSymbolTable
 70
     1
100
AcDbDimStyleTable
  0
DIMSTYLE
105
27
330
A
100
AcDbSymbolTableRecord
100
AcDbDimStyleTableRecord
  2
Standard
 70
     0
178
     0
340
11
  0
ENDTAB
  0
TABLE
  2
BLOCK_RECORD
  5
1
330
0
100
AcDbSymbolTable
 70
     1
  0
BLOCK_RECORD
  5
1F
330
1
100
AcDbSymbolTableRecord
100
AcDbBlockTableRecord
  2
*Model_Space
340
22
  0
BLOCK_RECORD
  5
1B
330
1
100
AcDbSymbolTableRecord
100
AcDbBlockTableRecord
  2
*Paper_Space
340
1E
  0
BLOCK_RECORD
  5
23
330
1
100
AcDbSymbolTableRecord
100
AcDbBlockTableRecord
  2
*Paper_Space0
340
26
  0
ENDTAB
  0
ENDSEC
  0
SECTION
  2
BLOCKS
  0
BLOCK
  5
20
330
1F
100
AcDbEntity
  8
0
100
AcDbBlockBegin
  2
*Model_Space
 70
     0
 10
0.0
 20
0.0
 30
0.0
  3
*Model_Space
  1

  0
ENDBLK
  5
21
330
1F
100
AcDbEntity
  8
0
100
AcDbBlockEnd
  0
BLOCK
  5
1C
330
1B
100
AcDbEntity
 67
     1
  8
0
100
AcDbBlockBegin
  2
*Paper_Space
 70
     0
 10
0.0
 20
0.0
 30
0.0
  3
*Paper_Space
  1

  0
ENDBLK
  5
1D
330
1B
100
AcDbEntity
 67
     1
  8
0
100
AcDbBlockEnd
  0
BLOCK
  5
24
330
23
100
AcDbEntity
  8
0
100
AcDbBlockBegin
  2
*Paper_Space0
 70
     0
 10
0.0
 20
0.0
 30
0.0
  3
*Paper_Space0
  1

  0
ENDBLK
  5
25
330
23
100
AcDbEntity
  8
0
100
AcDbBlockEnd
  0
ENDSEC
  0
SECTION
  2
ENTITIES
  0
3DFACE
  5
45
330
1F
100
AcDbEntity
  8
1
  6
CONTINUOUS
 62
    43
370
     5
100
AcDbFace
 10
-59.979543
 20
131.716698
 30
1.0
 11
-81.981584
 21
140.600488
 31
1.0
 12
-82.733288
 22
128.357515
 32
1.0
 13
-62.606789
 23
119.328491
 33
1.0
  0
3DFACE
  5
47
330
1F
100
AcDbEntity
  8
1
  6
CONTINUOUS
 62
    43
370
     5
100
AcDbFace
 10
-105.515584
 20
143.627435
 30
1.0
 11
-129.049584
 21
140.600488
 31
1.0
 12
-126.437262
 22
128.878847
 32
1.0
 13
-104.549445
 23
131.621674
 33
1.0
  0
3DFACE
  5
48
330
1F
100
AcDbEntity
  8
1
  6
CONTINUOUS
 62
    43
370
     5
100
AcDbFace
 10
-104.549445
 20
131.621674
 30
1.0
 11
-82.733288
 21
128.357515
 31
1.0
 12
-81.981584
 22
140.600488
 32
1.0
 13
-105.515584
 23
143.627435
 33
1.0
  0
3DFACE
  5
49
330
1F
100
AcDbEntity
  8
1
  6
CONTINUOUS
 62
    43
370
     5
100
AcDbFace
 10
-151.051626
 20
131.716698
 30
1.0
 11
-190.618128
 21
103.225507
 31
1.0
 12
-189.299047
 22
101.653486
 32
1.0
 13
-146.773398
 23
120.332465
 33
1.0
  0
3DFACE
  5
4A
330
1F
100
AcDbEntity
  8
1
  6
CONTINUOUS
 62
    43
370
     5
100
AcDbFace
 10
-146.773398
 20
120.332465
 30
1.0
 11
-126.437262
 21
128.878847
 31
1.0
 12
-129.049584
 22
140.600488
 32
1.0
 13
-151.051626
 23
131.716698
 33
1.0
  0
3DFACE
  5
4B
330
1F
100
AcDbEntity
  8
1
  6
CONTINUOUS
 62
    43
370
     5
100
AcDbFace
 10
-21.913042
 20
100.62743
 30
1.0
 11
-62.606789
 21
119.328491
 31
1.0
 12
-45.662642
 22
105.204217
 32
1.0
 13
-45.662642
 23
105.204217
 33
1.0
  0
3DFACE
  5
4C
330
1F
100
AcDbEntity
  8
1
  6
CONTINUOUS
 62
    43
370
     5
100
AcDbFace
 10
-45.662642
 20
105.204217
 30
1.0
 11
-33.157509
 21
87.032229
 31
1.0
 12
-21.211175
 22
98.699063
 32
1.0
 13
-21.913042
 23
100.62743
 33
1.0
  0
3DFACE
  5
4D
330
1F
100
AcDbEntity
  8
1
  6
CONTINUOUS
 62
    43
370
     5
100
AcDbFace
 10
-12.522197
 20
49.518164
 30
1.0
 11
-17.413042
 21
98.029353
 31
1.0
 12
-19.433986
 22
97.673006
 32
1.0
 13
-26.018847
 23
66.160269
 33
1.0
  0
3DFACE
  5
4E
330
1F
100
AcDbEntity
  8
1
  6
CONTINUOUS
 62
    43
370
     5
100
AcDbFace
 10
-62.606789
 20
119.328491
 30
1.0
 11
-21.913042
 21
100.62743
 31
1.0
 12
-21.211175
 22
102.555789
 32
1.0
 13
-59.979543
 23
131.716698
 33
1.0
  0
3DFACE
  5
4F
330
1F
100
AcDbEntity
  8
1
  6
CONTINUOUS
 62
    43
370
     5
100
AcDbFace
 10
-26.018847
 20
66.160269
 30
1.0
 11
-24.776092
 21
44.136304
 31
1.0
 12
-12.522197
 22
49.518164
 32
1.0
 13
-12.522197
 23
49.518164
 33
1.0
  0
3DFACE
  5
50
330
1F
100
AcDbEntity
  8
1
  6
CONTINUOUS
 62
    43
370
     5
100
AcDbFace
 10
-186.055943
 20
4.127429
 30
1.0
 11
-171.667531
 21
-14.74014
 31
1.0
 12
-157.379508
 22
-11.591
 32
1.0
 13
-172.242582
 23
4.708949
 33
1.0
  0
3DFACE
  5
51
330
1F
100
AcDbEntity
  8
1
  6
CONTINUOUS
 62
    43
370
     5
100
AcDbFace
 10
-152.972922
 20
-29.352572
 30
1.0
 11
-108.515583
 21
-49.372572
 31
1.0
 12
-107.813716
 22
-47.444209
 32
1.0
 13
-138.669923
 23
-23.276493
 33
1.0
  0
3DFACE
  5
52
330
1F
100
AcDbEntity
  8
1
  6
CONTINUOUS
 62
    43
370
     5
100
AcDbFace
 10
-15.485598
 20
106.730923
 30
1.0
 11
-59.979543
 21
131.716698
 31
1.0
 12
-19.433986
 22
103.581853
 32
1.0
 13
-17.413042
 23
103.225507
 33
1.0
  0
3DFACE
  5
53
330
1F
100
AcDbEntity
  8
1
  6
CONTINUOUS
 62
    43
370
     5
100
AcDbFace
 10
-19.433986
 20
97.673006
 30
1.0
 11
-21.211175
 21
98.699063
 31
1.0
 12
-33.157509
 22
87.032229
 32
1.0
 13
-26.018847
 23
66.160269
 33
1.0
  0
3DFACE
  5
54
330
1F
100
AcDbEntity
  8
1
  6
CONTINUOUS
 62
    43
370
     5
100
AcDbFace
 10
-198.508963
 20
49.518164
 30
1.0
 11
-195.201531
 21
26.021942
 31
1.0
 12
-182.156831
 22
24.414461
 32
1.0
 13
-186.386928
 23
46.064071
 33
1.0
  0
3DFACE
  5
55
330
1F
100
AcDbEntity
  8
1
  6
CONTINUOUS
 62
    43
370
     5
100
AcDbFace
 10
-138.669923
 20
-23.276493
 30
1.0
 11
-157.379508
 21
-11.591
 31
1.0
 12
-171.667531
 22
-14.74014
 32
1.0
 13
-152.972922
 23
-29.352572
 33
1.0
  0
3DFACE
  5
56
330
1F
100
AcDbEntity
  8
1
  6
CONTINUOUS
 62
    43
370
     5
100
AcDbFace
 10
-21.211175
 20
102.555789
 30
1.0
 11
-19.433986
 21
103.581853
 31
1.0
 12
-59.979543
 22
131.716698
 32
1.0
 13
-59.979543
 23
131.716698
 33
1.0
  0
3DFACE
  5
57
330
1F
100
AcDbEntity
  8
1
  6
CONTINUOUS
 62
    43
370
     5
100
AcDbFace
 10
-195.545569
 20
106.730923
 30
1.0
 11
-198.180303
 21
104.127429
 31
1.0
 12
-194.416255
 22
102.555789
 32
1.0
 13
-192.639068
 23
103.581853
 33
1.0
  0
3DFACE
  5
58
330
1F
100
AcDbEntity
  8
1
  6
CONTINUOUS
 62
    43
370
     5
100
AcDbFace
 10
-172.242582
 20
4.708949
 30
1.0
 11
-182.156831
 21
24.414461
 31
1.0
 12
-195.201531
 22
26.021942
 32
1.0
 13
-186.055943
 23
4.127429
 33
1.0
  0
3DFACE
  5
59
330
1F
100
AcDbEntity
  8
1
  6
CONTINUOUS
 62
    43
370
     5
100
AcDbFace
 10
-192.639068
 20
103.581853
 30
1.0
 11
-190.618128
 21
103.225507
 31
1.0
 12
-151.051626
 22
131.716698
 32
1.0
 13
-195.545569
 23
106.730923
 33
1.0
  0
3DFACE
  5
5A
330
1F
100
AcDbEntity
  8
1
  6
CONTINUOUS
 62
    43
370
     5
100
AcDbFace
 10
-11.91354
 20
100.543939
 30
1.0
 11
-12.850864
 21
104.127429
 31
1.0
 12
-16.093964
 22
101.653486
 32
1.0
 13
-16.093964
 23
99.601366
 33
1.0
  0
3DFACE
  5
5B
330
1F
100
AcDbEntity
  8
1
  6
CONTINUOUS
 62
    43
370
     5
100
AcDbFace
 10
-186.386928
 20
46.064071
 30
1.0
 11
-190.618128
 21
98.029353
 31
1.0
 12
-192.639068
 22
97.673006
 32
1.0
 13
-198.508963
 23
49.518164
 33
1.0
  0
3DFACE
  5
5C
330
1F
100
AcDbEntity
  8
1
  6
CONTINUOUS
 62
    43
370
     5
100
AcDbFace
 10
-109.087639
 20
-55.392571
 30
1.0
 11
-105.515584
 21
-56.372572
 31
1.0
 12
-106.036529
 22
-52.326996
 32
1.0
 13
-107.813716
 23
-51.300935
 33
1.0
  0
3DFACE
  5
5D
330
1F
100
AcDbEntity
  8
1
  6
CONTINUOUS
 62
    43
370
     5
100
AcDbFace
 10
-190.618128
 20
98.029353
 30
1.0
 11
-186.386928
 21
46.064071
 31
1.0
 12
-184.619188
 22
68.052121
 32
1.0
 13
-184.619188
 23
68.052121
 33
1.0
  0
3DFACE
  5
5E
330
1F
100
AcDbEntity
  8
1
  6
CONTINUOUS
 62
    43
370
     5
100
AcDbFace
 10
-189.299047
 20
101.653486
 30
1.0
 11
-189.299047
 21
99.601366
 31
1.0
 12
-176.984683
 22
88.747866
 32
1.0
 13
-164.04964
 23
106.616385
 33
1.0
  0
3DFACE
  5
5F
330
1F
100
AcDbEntity
  8
1
  6
CONTINUOUS
 62
    43
370
     5
100
AcDbFace
 10
-102.696501
 20
-48.346512
 30
1.0
 11
-58.058236
 21
-29.352572
 31
1.0
 12
-74.133538
 22
-24.046311
 32
1.0
 13
-74.133538
 23
-24.046311
 33
1.0
  0
3DFACE
  5
60
330
1F
100
AcDbEntity
  8
1
  6
CONTINUOUS
 62
    43
370
     5
100
AcDbFace
 10
-24.97522
 20
4.127429
 30
1.0
 11
-15.82963
 21
26.021942
 31
1.0
 12
-29.521415
 22
22.593759
 32
1.0
 13
-39.902881
 23
3.130342
 33
1.0
  0
3DFACE
  5
61
330
1F
100
AcDbEntity
  8
1
  6
CONTINUOUS
 62
    43
370
     5
100
AcDbFace
 10
-16.093964
 20
99.601366
 30
1.0
 11
-17.413042
 21
98.029353
 31
1.0
 12
-12.522197
 22
49.518164
 32
1.0
 13
-11.91354
 23
100.543939
 33
1.0
  0
3DFACE
  5
62
330
1F
100
AcDbEntity
  8
1
  6
CONTINUOUS
 62
    43
370
     5
100
AcDbFace
 10
-199.117631
 20
100.543939
 30
1.0
 11
-198.508963
 21
49.518164
 31
1.0
 12
-194.416255
 22
98.699063
 32
1.0
 13
-195.118129
 23
100.62743
 33
1.0
  0
3DFACE
  5
63
330
1F
100
AcDbEntity
  8
1
  6
CONTINUOUS
 62
    43
370
     5
100
AcDbFace
 10
-107.813716
 20
-51.300935
 30
1.0
 11
-108.515583
 21
-49.372572
 31
1.0
 12
-152.972922
 22
-29.352572
 32
1.0
 13
-109.087639
 23
-55.392571
 33
1.0
  0
3DFACE
  5
64
330
1F
100
AcDbEntity
  8
1
  6
CONTINUOUS
 62
    43
370
     5
100
AcDbFace
 10
-164.04964
 20
106.616385
 30
1.0
 11
-146.773398
 21
120.332465
 31
1.0
 12
-189.299047
 22
101.653486
 32
1.0
 13
-189.299047
 23
101.653486
 33
1.0
  0
3DFACE
  5
65
330
1F
100
AcDbEntity
  8
1
  6
CONTINUOUS
 62
    43
370
     5
100
AcDbFace
 10
-58.058236
 20
-29.352572
 30
1.0
 11
-39.36363
 21
-14.74014
 31
1.0
 12
-55.150539
 22
-12.810432
 32
1.0
 13
-74.133538
 23
-24.046311
 33
1.0
  0
3DFACE
  5
66
330
1F
100
AcDbEntity
  8
1
  6
CONTINUOUS
 62
    43
370
     5
100
AcDbFace
 10
-15.82963
 20
26.021942
 30
1.0
 11
-12.522197
 21
49.518164
 31
1.0
 12
-24.776092
 22
44.136304
 32
1.0
 13
-29.521415
 23
22.593759
 33
1.0
  0
3DFACE
  5
67
330
1F
100
AcDbEntity
  8
1
  6
CONTINUOUS
 62
    43
370
     5
100
AcDbFace
 10
-195.118129
 20
100.62743
 30
1.0
 11
-194.416255
 21
102.555789
 31
1.0
 12
-198.180303
 22
104.127429
 32
1.0
 13
-199.117631
 23
100.543939
 33
1.0
  0
3DFACE
  5
68
330
1F
100
AcDbEntity
  8
1
  6
CONTINUOUS
 62
    43
370
     5
100
AcDbFace
 10
-184.619188
 20
68.052121
 30
1.0
 11
-176.984683
 21
88.747866
 31
1.0
 12
-189.299047
 22
99.601366
 32
1.0
 13
-190.618128
 23
98.029353
 33
1.0
  0
3DFACE
  5
69
330
1F
100
AcDbEntity
  8
1
  6
CONTINUOUS
 62
    43
370
     5
100
AcDbFace
 10
-101.943523
 20
-55.392571
 30
1.0
 11
-58.058236
 21
-29.352572
 31
1.0
 12
-102.696501
 22
-50.398633
 32
1.0
 13
-104.015581
 23
-51.970646
 33
1.0
  0
3DFACE
  5
6A
330
1F
100
AcDbEntity
  8
1
  6
CONTINUOUS
 62
    43
370
     5
100
AcDbFace
 10
-39.902881
 20
3.130342
 30
1.0
 11
-55.150539
 21
-12.810432
 31
1.0
 12
-39.36363
 22
-14.74014
 32
1.0
 13
-24.97522
 23
4.127429
 33
1.0
  0
3DFACE
  5
6B
330
1F
100
AcDbEntity
  8
1
  6
CONTINUOUS
 62
    43
370
     5
100
AcDbFace
 10
-117.50143
 20
-29.480869
 30
1.0
 11
-138.669923
 21
-23.276493
 31
1.0
 12
-107.813716
 22
-47.444209
 32
1.0
 13
-106.036529
 23
-46.418149
 33
1.0
  0
3DFACE
  5
6C
330
1F
100
AcDbEntity
  8
1
  6
CONTINUOUS
 62
    43
370
     5
100
AcDbFace
 10
-192.639068
 20
97.673006
 30
1.0
 11
-194.416255
 21
98.699063
 31
1.0
 12
-198.508963
 22
49.518164
 32
1.0
 13
-198.508963
 23
49.518164
 33
1.0
  0
3DFACE
  5
6D
330
1F
100
AcDbEntity
  8
1
  6
CONTINUOUS
 62
    43
370
     5
100
AcDbFace
 10
-58.058236
 20
-29.352572
 30
1.0
 11
-102.696501
 21
-48.346512
 31
1.0
 12
-102.696501
 22
-50.398633
 32
1.0
 13
-102.696501
 23
-50.398633
 33
1.0
  0
3DFACE
  5
6E
330
1F
100
AcDbEntity
  8
1
  6
CONTINUOUS
 62
    43
370
     5
100
AcDbFace
 10
-106.036529
 20
-46.418149
 30
1.0
 11
-104.015581
 21
-46.774495
 31
1.0
 12
-95.444001
 22
-29.743981
 32
1.0
 13
-117.50143
 23
-29.480869
 33
1.0
  0
3DFACE
  5
6F
330
1F
100
AcDbEntity
  8
1
  6
CONTINUOUS
 62
    43
370
     5
100
AcDbFace
 10
-104.015581
 20
-51.970646
 30
1.0
 11
-106.036529
 21
-52.326996
 31
1.0
 12
-105.515584
 22
-56.372572
 32
1.0
 13
-101.943523
 23
-55.392571
 33
1.0
  0
3DFACE
  5
70
330
1F
100
AcDbEntity
  8
1
  6
CONTINUOUS
 62
    43
370
     5
100
AcDbFace
 10
-17.413042
 20
103.225507
 30
1.0
 11
-16.093964
 21
101.653486
 31
1.0
 12
-12.850864
 22
104.127429
 32
1.0
 13
-15.485598
 23
106.730923
 33
1.0
  0
3DFACE
  5
71
330
1F
100
AcDbEntity
  8
1
  6
CONTINUOUS
 62
    43
370
     5
100
AcDbFace
 10
-74.133538
 20
-24.046311
 30
1.0
 11
-95.444001
 21
-29.743981
 31
1.0
 12
-104.015581
 22
-46.774495
 32
1.0
 13
-102.696501
 23
-48.346512
 33
1.0
  0
3DFACE
  5
72
330
1F
100
AcDbEntity
  8
1
  6
CONTINUOUS
 62
    43
370
     5
100
AcDbFace
 10
-195.201531
 20
26.021942
 30
0.0
 11
-195.201531
 21
26.021942
 31
1.0
 12
-198.508963
 22
49.518164
 32
1.0
 13
-198.508963
 23
49.518164
 33
0.0
  0
3DFACE
  5
73
330
1F
100
AcDbEntity
  8
1
  6
CONTINUOUS
 62
    43
370
     5
100
AcDbFace
 10
-186.055943
 20
4.127429
 30
0.0
 11
-186.055943
 21
4.127429
 31
1.0
 12
-195.201531
 22
26.021942
 32
1.0
 13
-195.201531
 23
26.021942
 33
0.0
  0
3DFACE
  5
74
330
1F
100
AcDbEntity
  8
1
  6
CONTINUOUS
 62
    43
370
     5
100
AcDbFace
 10
-171.667531
 20
-14.74014
 30
0.0
 11
-171.667531
 21
-14.74014
 31
1.0
 12
-186.055943
 22
4.127429
 32
1.0
 13
-186.055943
 23
4.127429
 33
0.0
  0
3DFACE
  5
75
330
1F
100
AcDbEntity
  8
1
  6
CONTINUOUS
 62
    43
370
     5
100
AcDbFace
 10
-152.972922
 20
-29.352572
 30
0.0
 11
-152.972922
 21
-29.352572
 31
1.0
 12
-171.667531
 22
-14.74014
 32
1.0
 13
-171.667531
 23
-14.74014
 33
0.0
  0
3DFACE
  5
76
330
1F
100
AcDbEntity
  8
1
  6
CONTINUOUS
 62
    43
370
     5
100
AcDbFace
 10
-151.051626
 20
131.716698
 30
0.0
 11
-129.049584
 21
140.600488
 31
0.0
 12
-121.995516
 22
129.933238
 32
0.0
 13
-142.780855
 23
122.546129
 33
0.0
  0
3DFACE
  5
77
330
1F
100
AcDbEntity
  8
1
  6
CONTINUOUS
 62
    43
370
     5
100
AcDbFace
 10
-81.981584
 20
140.600488
 30
0.0
 11
-59.979543
 21
131.716698
 31
0.0
 12
-58.804475
 22
116.801992
 32
0.0
 13
-78.39033
 23
126.950562
 33
0.0
  0
3DFACE
  5
78
330
1F
100
AcDbEntity
  8
1
  6
CONTINUOUS
 62
    43
370
     5
100
AcDbFace
 10
-59.979543
 20
131.716698
 30
0.0
 11
-21.211175
 21
102.555789
 31
0.0
 12
-21.913042
 22
100.62743
 32
0.0
 13
-42.682968
 23
101.745553
 33
0.0
  0
3DFACE
  5
79
330
1F
100
AcDbEntity
  8
1
  6
CONTINUOUS
 62
    43
370
     5
100
AcDbFace
 10
-129.049584
 20
140.600488
 30
0.0
 11
-105.515584
 21
143.627435
 31
0.0
 12
-99.987946
 22
131.438598
 32
0.0
 13
-121.995516
 23
129.933238
 33
0.0
  0
3DFACE
  5
7A
330
1F
100
AcDbEntity
  8
1
  6
CONTINUOUS
 62
    43
370
     5
100
AcDbFace
 10
-42.682968
 20
101.745553
 30
0.0
 11
-58.804475
 21
116.801992
 31
0.0
 12
-59.979543
 22
131.716698
 32
0.0
 13
-59.979543
 23
131.716698
 33
0.0
  0
3DFACE
  5
7B
330
1F
100
AcDbEntity
  8
1
  6
CONTINUOUS
 62
    43
370
     5
100
AcDbFace
 10
-78.39033
 20
126.950562
 30
0.0
 11
-99.987946
 21
131.438598
 31
0.0
 12
-105.515584
 22
143.627435
 32
0.0
 13
-81.981584
 23
140.600488
 33
0.0
  0
3DFACE
  5
7C
330
1F
100
AcDbEntity
  8
1
  6
CONTINUOUS
 62
    43
370
     5
100
AcDbFace
 10
-189.299047
 20
101.653486
 30
0.0
 11
-142.780855
 21
122.546129
 31
0.0
 12
-160.802379
 22
109.825142
 32
0.0
 13
-160.802379
 23
109.825142
 33
0.0
  0
3DFACE
  5
7D
330
1F
100
AcDbEntity
  8
1
  6
CONTINUOUS
 62
    43
370
     5
100
AcDbFace
 10
-160.802379
 20
109.825142
 30
0.0
 11
-174.723551
 21
92.713729
 31
0.0
 12
-189.299047
 22
99.601366
 32
0.0
 13
-189.299047
 23
101.653486
 33
0.0
  0
3DFACE
  5
7E
330
1F
100
AcDbEntity
  8
1
  6
CONTINUOUS
 62
    43
370
     5
100
AcDbFace
 10
-25.270021
 20
39.597929
 30
0.0
 11
-19.433986
 21
97.673006
 31
0.0
 12
-17.413042
 22
98.029353
 32
0.0
 13
-12.522197
 23
49.518164
 33
0.0
  0
3DFACE
  5
7F
330
1F
100
AcDbEntity
  8
1
  6
CONTINUOUS
 62
    43
370
     5
100
AcDbFace
 10
-174.723551
 20
92.713729
 30
0.0
 11
-183.511883
 21
72.480969
 31
0.0
 12
-190.618128
 22
98.029353
 32
0.0
 13
-189.299047
 23
99.601366
 33
0.0
  0
3DFACE
  5
80
330
1F
100
AcDbEntity
  8
1
  6
CONTINUOUS
 62
    43
370
     5
100
AcDbFace
 10
-15.82963
 20
26.021942
 30
0.0
 11
-24.97522
 21
4.127429
 31
0.0
 12
-31.221466
 22
18.35694
 32
0.0
 13
-25.270021
 23
39.597929
 33
0.0
  0
3DFACE
  5
81
330
1F
100
AcDbEntity
  8
1
  6
CONTINUOUS
 62
    43
370
     5
100
AcDbFace
 10
-59.979543
 20
131.716698
 30
0.0
 11
-19.433986
 21
103.581853
 31
0.0
 12
-21.211175
 22
102.555789
 32
0.0
 13
-21.211175
 23
102.555789
 33
0.0
  0
3DFACE
  5
82
330
1F
100
AcDbEntity
  8
1
  6
CONTINUOUS
 62
    43
370
     5
100
AcDbFace
 10
-15.485598
 20
106.730923
 30
0.0
 11
-12.850864
 21
104.127429
 31
0.0
 12
-16.093964
 22
101.653486
 32
0.0
 13
-17.413042
 23
103.225507
 33
0.0
  0
3DFACE
  5
83
330
1F
100
AcDbEntity
  8
1
  6
CONTINUOUS
 62
    43
370
     5
100
AcDbFace
 10
-24.97522
 20
4.127429
 30
0.0
 11
-39.36363
 21
-14.74014
 31
0.0
 12
-42.682968
 22
-0.490695
 32
0.0
 13
-31.221466
 23
18.35694
 33
0.0
  0
3DFACE
  5
84
330
1F
100
AcDbEntity
  8
1
  6
CONTINUOUS
 62
    43
370
     5
100
AcDbFace
 10
-58.058236
 20
-29.352572
 30
0.0
 11
-102.515578
 21
-49.372572
 31
0.0
 12
-103.217445
 22
-47.444209
 32
0.0
 13
-58.804475
 23
-15.547132
 33
0.0
  0
3DFACE
  5
85
330
1F
100
AcDbEntity
  8
1
  6
CONTINUOUS
 62
    43
370
     5
100
AcDbFace
 10
-195.545569
 20
106.730923
 30
0.0
 11
-151.051626
 21
131.716698
 31
0.0
 12
-190.618128
 22
103.225507
 32
0.0
 13
-192.639068
 23
103.581853
 33
0.0
  0
3DFACE
  5
86
330
1F
100
AcDbEntity
  8
1
  6
CONTINUOUS
 62
    43
370
     5
100
AcDbFace
 10
-17.413042
 20
103.225507
 30
0.0
 11
-19.433986
 21
103.581853
 31
0.0
 12
-59.979543
 22
131.716698
 32
0.0
 13
-15.485598
 23
106.730923
 33
0.0
  0
3DFACE
  5
87
330
1F
100
AcDbEntity
  8
1
  6
CONTINUOUS
 62
    43
370
     5
100
AcDbFace
 10
-198.508963
 20
49.518164
 30
0.0
 11
-192.639068
 21
97.673006
 31
0.0
 12
-190.618128
 22
98.029353
 32
0.0
 13
-183.511883
 23
72.480969
 33
0.0
  0
3DFACE
  5
88
330
1F
100
AcDbEntity
  8
1
  6
CONTINUOUS
 62
    43
370
     5
100
AcDbFace
 10
-58.804475
 20
-15.547132
 30
0.0
 11
-42.682968
 21
-0.490695
 31
0.0
 12
-39.36363
 22
-14.74014
 32
0.0
 13
-58.058236
 23
-29.352572
 33
0.0
  0
3DFACE
  5
89
330
1F
100
AcDbEntity
  8
1
  6
CONTINUOUS
 62
    43
370
     5
100
AcDbFace
 10
-101.943523
 20
-55.392571
 30
0.0
 11
-105.515584
 21
-56.372572
 31
0.0
 12
-104.99464
 22
-52.326996
 32
0.0
 13
-103.217445
 23
-51.300935
 33
0.0
  0
3DFACE
  5
8A
330
1F
100
AcDbEntity
  8
1
  6
CONTINUOUS
 62
    43
370
     5
100
AcDbFace
 10
-142.780855
 20
122.546129
 30
0.0
 11
-189.299047
 21
101.653486
 31
0.0
 12
-190.618128
 22
103.225507
 32
0.0
 13
-151.051626
 23
131.716698
 33
0.0
  0
3DFACE
  5
8B
330
1F
100
AcDbEntity
  8
1
  6
CONTINUOUS
 62
    43
370
     5
100
AcDbFace
 10
-198.508963
 20
49.518164
 30
0.0
 11
-194.416255
 21
98.699063
 31
0.0
 12
-192.639068
 22
97.673006
 32
0.0
 13
-192.639068
 23
97.673006
 33
0.0
  0
3DFACE
  5
8C
330
1F
100
AcDbEntity
  8
1
  6
CONTINUOUS
 62
    43
370
     5
100
AcDbFace
 10
-103.217445
 20
-51.300935
 30
0.0
 11
-102.515578
 21
-49.372572
 31
0.0
 12
-58.058236
 22
-29.352572
 32
0.0
 13
-101.943523
 23
-55.392571
 33
0.0
  0
3DFACE
  5
8D
330
1F
100
AcDbEntity
  8
1
  6
CONTINUOUS
 62
    43
370
     5
100
AcDbFace
 10
-19.433986
 20
97.673006
 30
0.0
 11
-25.270021
 21
39.597929
 31
0.0
 12
-25.270021
 22
61.656926
 32
0.0
 13
-25.270021
 23
61.656926
 33
0.0
  0
3DFACE
  5
8E
330
1F
100
AcDbEntity
  8
1
  6
CONTINUOUS
 62
    43
370
     5
100
AcDbFace
 10
-183.511883
 20
72.480969
 30
0.0
 11
-186.515585
 21
50.627429
 31
0.0
 12
-198.508963
 22
49.518164
 32
0.0
 13
-198.508963
 23
49.518164
 33
0.0
  0
3DFACE
  5
8F
330
1F
100
AcDbEntity
  8
1
  6
CONTINUOUS
 62
    43
370
     5
100
AcDbFace
 10
-11.91354
 20
100.543939
 30
0.0
 11
-12.522197
 21
49.518164
 31
0.0
 12
-17.413042
 22
98.029353
 32
0.0
 13
-16.093964
 23
99.601366
 33
0.0
  0
3DFACE
  5
90
330
1F
100
AcDbEntity
  8
1
  6
CONTINUOUS
 62
    43
370
     5
100
AcDbFace
 10
-25.270021
 20
61.656926
 30
0.0
 11
-31.221466
 21
82.897916
 31
0.0
 12
-21.211175
 22
98.699063
 32
0.0
 13
-19.433986
 23
97.673006
 33
0.0
  0
3DFACE
  5
91
330
1F
100
AcDbEntity
  8
1
  6
CONTINUOUS
 62
    43
370
     5
100
AcDbFace
 10
-152.972922
 20
-29.352572
 30
0.0
 11
-171.667531
 21
-14.74014
 31
0.0
 12
-160.802379
 22
-8.570285
 32
0.0
 13
-142.780855
 23
-21.291275
 33
0.0
  0
3DFACE
  5
92
330
1F
100
AcDbEntity
  8
1
  6
CONTINUOUS
 62
    43
370
     5
100
AcDbFace
 10
-16.093964
 20
99.601366
 30
0.0
 11
-16.093964
 21
101.653486
 31
0.0
 12
-12.850864
 22
104.127429
 32
0.0
 13
-11.91354
 23
100.543939
 33
0.0
  0
3DFACE
  5
93
330
1F
100
AcDbEntity
  8
1
  6
CONTINUOUS
 62
    43
370
     5
100
AcDbFace
 10
-31.221466
 20
82.897916
 30
0.0
 11
-42.682968
 21
101.745553
 31
0.0
 12
-21.913042
 22
100.62743
 32
0.0
 13
-21.211175
 23
98.699063
 33
0.0
  0
3DFACE
  5
94
330
1F
100
AcDbEntity
  8
1
  6
CONTINUOUS
 62
    43
370
     5
100
AcDbFace
 10
-171.667531
 20
-14.74014
 30
0.0
 11
-186.055943
 21
4.127429
 31
0.0
 12
-174.723551
 22
8.541129
 32
0.0
 13
-160.802379
 23
-8.570285
 33
0.0
  0
3DFACE
  5
95
330
1F
100
AcDbEntity
  8
1
  6
CONTINUOUS
 62
    43
370
     5
100
AcDbFace
 10
-12.522197
 20
49.518164
 30
0.0
 11
-15.82963
 21
26.021942
 31
0.0
 12
-25.270021
 22
39.597929
 32
0.0
 13
-25.270021
 23
39.597929
 33
0.0
  0
3DFACE
  5
96
330
1F
100
AcDbEntity
  8
1
  6
CONTINUOUS
 62
    43
370
     5
100
AcDbFace
 10
-186.055943
 20
4.127429
 30
0.0
 11
-195.201531
 21
26.021942
 31
0.0
 12
-183.511883
 22
28.773891
 32
0.0
 13
-174.723551
 23
8.541129
 33
0.0
  0
3DFACE
  5
97
330
1F
100
AcDbEntity
  8
1
  6
CONTINUOUS
 62
    43
370
     5
100
AcDbFace
 10
-107.01558
 20
-46.774495
 30
0.0
 11
-142.780855
 21
-21.291275
 31
0.0
 12
-121.995516
 22
-28.678382
 32
0.0
 13
-121.995516
 23
-28.678382
 33
0.0
  0
3DFACE
  5
98
330
1F
100
AcDbEntity
  8
1
  6
CONTINUOUS
 62
    43
370
     5
100
AcDbFace
 10
-103.217445
 20
-47.444209
 30
0.0
 11
-104.99464
 21
-46.418149
 31
0.0
 12
-99.987946
 22
-30.183742
 32
0.0
 13
-78.39033
 23
-25.695706
 33
0.0
  0
3DFACE
  5
99
330
1F
100
AcDbEntity
  8
1
  6
CONTINUOUS
 62
    43
370
     5
100
AcDbFace
 10
-192.639068
 20
103.581853
 30
0.0
 11
-194.416255
 21
102.555789
 31
0.0
 12
-198.180303
 22
104.127429
 32
0.0
 13
-195.545569
 23
106.730923
 33
0.0
  0
3DFACE
  5
9A
330
1F
100
AcDbEntity
  8
1
  6
CONTINUOUS
 62
    43
370
     5
100
AcDbFace
 10
-109.087639
 20
-55.392571
 30
0.0
 11
-152.972922
 21
-29.352572
 31
0.0
 12
-108.334661
 22
-50.398633
 32
0.0
 13
-107.01558
 23
-51.970646
 33
0.0
  0
3DFACE
  5
9B
330
1F
100
AcDbEntity
  8
1
  6
CONTINUOUS
 62
    43
370
     5
100
AcDbFace
 10
-195.201531
 20
26.021942
 30
0.0
 11
-198.508963
 21
49.518164
 31
0.0
 12
-186.515585
 22
50.627429
 32
0.0
 13
-183.511883
 23
28.773891
 33
0.0
  0
3DFACE
  5
9C
330
1F
100
AcDbEntity
  8
1
  6
CONTINUOUS
 62
    43
370
     5
100
AcDbFace
 10
-78.39033
 20
-25.695706
 30
0.0
 11
-58.804475
 21
-15.547132
 31
0.0
 12
-103.217445
 22
-47.444209
 32
0.0
 13
-103.217445
 23
-47.444209
 33
0.0
  0
3DFACE
  5
9D
330
1F
100
AcDbEntity
  8
1
  6
CONTINUOUS
 62
    43
370
     5
100
AcDbFace
 10
-198.508963
 20
49.518164
 30
0.0
 11
-199.117631
 21
100.543939
 31
0.0
 12
-195.118129
 22
100.62743
 32
0.0
 13
-194.416255
 23
98.699063
 33
0.0
  0
3DFACE
  5
9E
330
1F
100
AcDbEntity
  8
1
  6
CONTINUOUS
 62
    43
370
     5
100
AcDbFace
 10
-152.972922
 20
-29.352572
 30
0.0
 11
-108.334661
 21
-48.346512
 31
0.0
 12
-108.334661
 22
-50.398633
 32
0.0
 13
-108.334661
 23
-50.398633
 33
0.0
  0
3DFACE
  5
9F
330
1F
100
AcDbEntity
  8
1
  6
CONTINUOUS
 62
    43
370
     5
100
AcDbFace
 10
-121.995516
 20
-28.678382
 30
0.0
 11
-99.987946
 21
-30.183742
 31
0.0
 12
-104.99464
 22
-46.418149
 32
0.0
 13
-107.01558
 23
-46.774495
 33
0.0
  0
3DFACE
  5
A0
330
1F
100
AcDbEntity
  8
1
  6
CONTINUOUS
 62
    43
370
     5
100
AcDbFace
 10
-142.780855
 20
-21.291275
 30
0.0
 11
-107.01558
 21
-46.774495
 31
0.0
 12
-108.334661
 22
-48.346512
 32
0.0
 13
-152.972922
 23
-29.352572
 33
0.0
  0
3DFACE
  5
A1
330
1F
100
AcDbEntity
  8
1
  6
CONTINUOUS
 62
    43
370
     5
100
AcDbFace
 10
-107.01558
 20
-51.970646
 30
0.0
 11
-104.99464
 21
-52.326996
 31
0.0
 12
-105.515584
 22
-56.372572
 32
0.0
 13
-109.087639
 23
-55.392571
 33
0.0
  0
3DFACE
  5
A2
330
1F
100
AcDbEntity
  8
1
  6
CONTINUOUS
 62
    43
370
     5
100
AcDbFace
 10
-194.416255
 20
102.555789
 30
0.0
 11
-195.118129
 21
100.62743
 31
0.0
 12
-199.117631
 22
100.543939
 32
0.0
 13
-198.180303
 23
104.127429
 33
0.0
  0
ARC
  5
A3
330
1F
100
AcDbEntity
  8
1
  6
CONTINUOUS
 62
    43
370
     5
100
AcDbCircle
 10
105.515582
 20
50.627429
 30
0.0
 40
93.0
210
0.0
220
0.0
230
-1.0
100
AcDbArc
 50
300.683417
 51
359.316583
  0
ARC
  5
A4
330
1F
100
AcDbEntity
  8
1
  6
CONTINUOUS
 62
    43
370
     5
100
AcDbCircle
 10
105.515582
 20
50.627429
 30
-1.0
 40
93.0
210
0.0
220
0.0
230
-1.0
100
AcDbArc
 50
300.683417
 51
359.316583
  0
3DFACE
  5
A5
330
1F
100
AcDbEntity
  8
1
  6
CONTINUOUS
 62
    43
370
     5
100
AcDbFace
 10
-109.087639
 20
-55.392571
 30
0.0
 11
-109.087639
 21
-55.392571
 31
1.0
 12
-152.972922
 22
-29.352572
 32
1.0
 13
-152.972922
 23
-29.352572
 33
0.0
  0
3DFACE
  5
A6
330
1F
100
AcDbEntity
  8
1
  6
CONTINUOUS
 62
    43
370
     5
100
AcDbFace
 10
-58.058236
 20
-29.352572
 30
0.0
 11
-58.058236
 21
-29.352572
 31
1.0
 12
-101.943523
 22
-55.392571
 32
1.0
 13
-101.943523
 23
-55.392571
 33
0.0
  0
3DFACE
  5
A7
330
1F
100
AcDbEntity
  8
1
  6
CONTINUOUS
 62
    43
370
     5
100
AcDbFace
 10
-105.515584
 20
-56.372572
 30
0.0
 11
-105.515584
 21
-56.372572
 31
1.0
 12
-109.087639
 22
-55.392571
 32
1.0
 13
-109.087639
 23
-55.392571
 33
0.0
  0
3DFACE
  5
A8
330
1F
100
AcDbEntity
  8
1
  6
CONTINUOUS
 62
    43
370
     5
100
AcDbFace
 10
-101.943523
 20
-55.392571
 30
0.0
 11
-101.943523
 21
-55.392571
 31
1.0
 12
-105.515584
 22
-56.372572
 32
1.0
 13
-105.515584
 23
-56.372572
 33
0.0
  0
ARC
  5
A9
330
1F
100
AcDbEntity
  8
1
  6
CONTINUOUS
 62
    43
370
     5
100
AcDbCircle
 10
-105.515582
 20
-49.372571
 30
0.0
 40
6.999999999999994
100
AcDbArc
 50
239.316583
 51
300.683417
  0
LINE
  5
AA
330
1F
100
AcDbEntity
  8
1
  6
CONTINUOUS
 62
    43
370
     5
100
AcDbLine
 10
-101.943524
 20
-55.392571
 30
1.0
 11
-58.058237
 21
-29.352571
 31
1.0
  0
LINE
  5
AB
330
1F
100
AcDbEntity
  8
1
  6
CONTINUOUS
 62
    43
370
     5
100
AcDbLine
 10
-109.08764
 20
-55.392571
 30
1.0
 11
-109.08764
 21
-55.392571
 31
0.0
  0
LINE
  5
AC
330
1F
100
AcDbEntity
  8
1
  6
CONTINUOUS
 62
    43
370
     5
100
AcDbLine
 10
-152.972927
 20
-29.352571
 30
1.0
 11
-152.972927
 21
-29.352571
 31
0.0
  0
LINE
  5
AD
330
1F
100
AcDbEntity
  8
1
  6
CONTINUOUS
 62
    43
370
     5
100
AcDbLine
 10
-58.058237
 20
-29.352571
 30
1.0
 11
-58.058237
 21
-29.352571
 31
0.0
  0
LINE
  5
AE
330
1F
100
AcDbEntity
  8
1
  6
CONTINUOUS
 62
    43
370
     5
100
AcDbLine
 10
-101.943524
 20
-55.392571
 30
1.0
 11
-101.943524
 21
-55.392571
 31
0.0
  0
ARC
  5
AF
330
1F
100
AcDbEntity
  8
1
  6
CONTINUOUS
 62
    43
370
     5
100
AcDbCircle
 10
-105.515582
 20
-49.372571
 30
1.0
 40
6.999999999999994
100
AcDbArc
 50
239.316583
 51
300.683417
  0
LINE
  5
B0
330
1F
100
AcDbEntity
  8
1
  6
CONTINUOUS
 62
    43
370
     5
100
AcDbLine
 10
-152.972927
 20
-29.352571
 30
1.0
 11
-109.08764
 21
-55.392571
 31
1.0
  0
LINE
  5
B1
330
1F
100
AcDbEntity
  8
1
  6
CONTINUOUS
 62
    43
370
     5
100
AcDbLine
 10
-152.972927
 20
-29.352571
 30
0.0
 11
-109.08764
 21
-55.392571
 31
0.0
  0
LINE
  5
B2
330
1F
100
AcDbEntity
  8
1
  6
CONTINUOUS
 62
    43
370
     5
100
AcDbLine
 10
-101.943524
 20
-55.392571
 30
0.0
 11
-58.058237
 21
-29.352571
 31
0.0
  0
3DFACE
  5
B3
330
1F
100
AcDbEntity
  8
1
  6
CONTINUOUS
 62
    43
370
     5
100
AcDbFace
 10
-59.979543
 20
131.716698
 30
0.0
 11
-59.979543
 21
131.716698
 31
1.0
 12
-15.485598
 22
106.730923
 32
1.0
 13
-15.485598
 23
106.730923
 33
0.0
  0
3DFACE
  5
B4
330
1F
100
AcDbEntity
  8
1
  6
CONTINUOUS
 62
    43
370
     5
100
AcDbFace
 10
-11.91354
 20
100.543939
 30
0.0
 11
-11.91354
 21
100.543939
 31
1.0
 12
-12.522197
 22
49.518164
 32
1.0
 13
-12.522197
 23
49.518164
 33
0.0
  0
3DFACE
  5
B5
330
1F
100
AcDbEntity
  8
1
  6
CONTINUOUS
 62
    43
370
     5
100
AcDbFace
 10
-12.850864
 20
104.127429
 30
0.0
 11
-12.850864
 21
104.127429
 31
1.0
 12
-11.91354
 22
100.543939
 32
1.0
 13
-11.91354
 23
100.543939
 33
0.0
  0
3DFACE
  5
B6
330
1F
100
AcDbEntity
  8
1
  6
CONTINUOUS
 62
    43
370
     5
100
AcDbFace
 10
-15.485598
 20
106.730923
 30
0.0
 11
-15.485598
 21
106.730923
 31
1.0
 12
-12.850864
 22
104.127429
 32
1.0
 13
-12.850864
 23
104.127429
 33
0.0
  0
LINE
  5
B7
330
1F
100
AcDbEntity
  8
1
  6
CONTINUOUS
 62
    43
370
     5
100
AcDbLine
 10
-11.91354
 20
100.543936
 30
1.0
 11
-11.91354
 21
100.543936
 31
0.0
  0
LINE
  5
B8
330
1F
100
AcDbEntity
  8
1
  6
CONTINUOUS
 62
    43
370
     5
100
AcDbLine
 10
-15.485598
 20
106.730922
 30
1.0
 11
-15.485598
 21
106.730922
 31
0.0
  0
3DFACE
  5
B9
330
1F
100
AcDbEntity
  8
1
  6
CONTINUOUS
 62
    43
370
     5
100
AcDbFace
 10
-198.508963
 20
49.518164
 30
0.0
 11
-198.508963
 21
49.518164
 31
1.0
 12
-199.117631
 22
100.543939
 32
1.0
 13
-199.117631
 23
100.543939
 33
0.0
  0
3DFACE
  5
BA
330
1F
100
AcDbEntity
  8
1
  6
CONTINUOUS
 62
    43
370
     5
100
AcDbFace
 10
-195.545569
 20
106.730923
 30
0.0
 11
-195.545569
 21
106.730923
 31
1.0
 12
-151.051626
 22
131.716698
 32
1.0
 13
-151.051626
 23
131.716698
 33
0.0
  0
3DFACE
  5
BB
330
1F
100
AcDbEntity
  8
1
  6
CONTINUOUS
 62
    43
370
     5
100
AcDbFace
 10
-198.180303
 20
104.127429
 30
0.0
 11
-198.180303
 21
104.127429
 31
1.0
 12
-195.545569
 22
106.730923
 32
1.0
 13
-195.545569
 23
106.730923
 33
0.0
  0
3DFACE
  5
BC
330
1F
100
AcDbEntity
  8
1
  6
CONTINUOUS
 62
    43
370
     5
100
AcDbFace
 10
-199.117631
 20
100.543939
 30
0.0
 11
-199.117631
 21
100.543939
 31
1.0
 12
-198.180303
 22
104.127429
 32
1.0
 13
-198.180303
 23
104.127429
 33
0.0
  0
LINE
  5
BD
330
1F
100
AcDbEntity
  8
1
  6
CONTINUOUS
 62
    43
370
     5
100
AcDbLine
 10
-199.117624
 20
100.543936
 30
1.0
 11
-199.117624
 21
100.543936
 31
0.0
  0
LINE
  5
BE
330
1F
100
AcDbEntity
  8
1
  6
CONTINUOUS
 62
    43
370
     5
100
AcDbLine
 10
-195.545566
 20
106.730922
 30
1.0
 11
-195.545566
 21
106.730922
 31
0.0
  0
3DFACE
  5
BF
330
1F
100
AcDbEntity
  8
1
  6
CONTINUOUS
 62
    43
370
     5
100
AcDbFace
 10
-21.211175
 20
102.555789
 30
0.0
 11
-21.211175
 21
102.555789
 31
1.0
 12
-21.913042
 22
100.62743
 32
1.0
 13
-21.913042
 23
100.62743
 33
0.0
  0
3DFACE
  5
C0
330
1F
100
AcDbEntity
  8
1
  6
CONTINUOUS
 62
    43
370
     5
100
AcDbFace
 10
-19.433986
 20
103.581853
 30
0.0
 11
-19.433986
 21
103.581853
 31
1.0
 12
-21.211175
 22
102.555789
 32
1.0
 13
-21.211175
 23
102.555789
 33
0.0
  0
3DFACE
  5
C1
330
1F
100
AcDbEntity
  8
1
  6
CONTINUOUS
 62
    43
370
     5
100
AcDbFace
 10
-17.413042
 20
103.225507
 30
0.0
 11
-17.413042
 21
103.225507
 31
1.0
 12
-19.433986
 22
103.581853
 32
1.0
 13
-19.433986
 23
103.581853
 33
0.0
  0
3DFACE
  5
C2
330
1F
100
AcDbEntity
  8
1
  6
CONTINUOUS
 62
    43
370
     5
100
AcDbFace
 10
-16.093964
 20
101.653486
 30
0.0
 11
-16.093964
 21
101.653486
 31
1.0
 12
-17.413042
 22
103.225507
 32
1.0
 13
-17.413042
 23
103.225507
 33
0.0
  0
3DFACE
  5
C3
330
1F
100
AcDbEntity
  8
1
  6
CONTINUOUS
 62
    43
370
     5
100
AcDbFace
 10
-16.093964
 20
99.601366
 30
0.0
 11
-16.093964
 21
99.601366
 31
1.0
 12
-16.093964
 22
101.653486
 32
1.0
 13
-16.093964
 23
101.653486
 33
0.0
  0
3DFACE
  5
C4
330
1F
100
AcDbEntity
  8
1
  6
CONTINUOUS
 62
    43
370
     5
100
AcDbFace
 10
-17.413042
 20
98.029353
 30
0.0
 11
-17.413042
 21
98.029353
 31
1.0
 12
-16.093964
 22
99.601366
 32
1.0
 13
-16.093964
 23
99.601366
 33
0.0
  0
3DFACE
  5
C5
330
1F
100
AcDbEntity
  8
1
  6
CONTINUOUS
 62
    43
370
     5
100
AcDbFace
 10
-19.433986
 20
97.673006
 30
0.0
 11
-19.433986
 21
97.673006
 31
1.0
 12
-17.413042
 22
98.029353
 32
1.0
 13
-17.413042
 23
98.029353
 33
0.0
  0
3DFACE
  5
C6
330
1F
100
AcDbEntity
  8
1
  6
CONTINUOUS
 62
    43
370
     5
100
AcDbFace
 10
-21.211175
 20
98.699063
 30
0.0
 11
-21.211175
 21
98.699063
 31
1.0
 12
-19.433986
 22
97.673006
 32
1.0
 13
-19.433986
 23
97.673006
 33
0.0
  0
3DFACE
  5
C7
330
1F
100
AcDbEntity
  8
1
  6
CONTINUOUS
 62
    43
370
     5
100
AcDbFace
 10
-21.913042
 20
100.62743
 30
0.0
 11
-21.913042
 21
100.62743
 31
1.0
 12
-21.211175
 22
98.699063
 32
1.0
 13
-21.211175
 23
98.699063
 33
0.0
  0
3DFACE
  5
C8
330
1F
100
AcDbEntity
  8
1
  6
CONTINUOUS
 62
    43
370
     5
100
AcDbFace
 10
-194.416255
 20
102.555789
 30
0.0
 11
-194.416255
 21
102.555789
 31
1.0
 12
-195.118129
 22
100.62743
 32
1.0
 13
-195.118129
 23
100.62743
 33
0.0
  0
3DFACE
  5
C9
330
1F
100
AcDbEntity
  8
1
  6
CONTINUOUS
 62
    43
370
     5
100
AcDbFace
 10
-192.639068
 20
103.581853
 30
0.0
 11
-192.639068
 21
103.581853
 31
1.0
 12
-194.416255
 22
102.555789
 32
1.0
 13
-194.416255
 23
102.555789
 33
0.0
  0
3DFACE
  5
CA
330
1F
100
AcDbEntity
  8
1
  6
CONTINUOUS
 62
    43
370
     5
100
AcDbFace
 10
-190.618128
 20
103.225507
 30
0.0
 11
-190.618128
 21
103.225507
 31
1.0
 12
-192.639068
 22
103.581853
 32
1.0
 13
-192.639068
 23
103.581853
 33
0.0
  0
3DFACE
  5
CB
330
1F
100
AcDbEntity
  8
1
  6
CONTINUOUS
 62
    43
370
     5
100
AcDbFace
 10
-189.299047
 20
101.653486
 30
0.0
 11
-189.299047
 21
101.653486
 31
1.0
 12
-190.618128
 22
103.225507
 32
1.0
 13
-190.618128
 23
103.225507
 33
0.0
  0
3DFACE
  5
CC
330
1F
100
AcDbEntity
  8
1
  6
CONTINUOUS
 62
    43
370
     5
100
AcDbFace
 10
-189.299047
 20
99.601366
 30
0.0
 11
-189.299047
 21
99.601366
 31
1.0
 12
-189.299047
 22
101.653486
 32
1.0
 13
-189.299047
 23
101.653486
 33
0.0
  0
3DFACE
  5
CD
330
1F
100
AcDbEntity
  8
1
  6
CONTINUOUS
 62
    43
370
     5
100
AcDbFace
 10
-190.618128
 20
98.029353
 30
0.0
 11
-190.618128
 21
98.029353
 31
1.0
 12
-189.299047
 22
99.601366
 32
1.0
 13
-189.299047
 23
99.601366
 33
0.0
  0
3DFACE
  5
CE
330
1F
100
AcDbEntity
  8
1
  6
CONTINUOUS
 62
    43
370
     5
100
AcDbFace
 10
-192.639068
 20
97.673006
 30
0.0
 11
-192.639068
 21
97.673006
 31
1.0
 12
-190.618128
 22
98.029353
 32
1.0
 13
-190.618128
 23
98.029353
 33
0.0
  0
3DFACE
  5
CF
330
1F
100
AcDbEntity
  8
1
  6
CONTINUOUS
 62
    43
370
     5
100
AcDbFace
 10
-194.416255
 20
98.699063
 30
0.0
 11
-194.416255
 21
98.699063
 31
1.0
 12
-192.639068
 22
97.673006
 32
1.0
 13
-192.639068
 23
97.673006
 33
0.0
  0
3DFACE
  5
D0
330
1F
100
AcDbEntity
  8
1
  6
CONTINUOUS
 62
    43
370
     5
100
AcDbFace
 10
-195.118129
 20
100.62743
 30
0.0
 11
-195.118129
 21
100.62743
 31
1.0
 12
-194.416255
 22
98.699063
 32
1.0
 13
-194.416255
 23
98.699063
 33
0.0
  0
3DFACE
  5
D1
330
1F
100
AcDbEntity
  8
1
  6
CONTINUOUS
 62
    43
370
     5
100
AcDbFace
 10
-39.36363
 20
-14.74014
 30
0.0
 11
-39.36363
 21
-14.74014
 31
1.0
 12
-58.058236
 22
-29.352572
 32
1.0
 13
-58.058236
 23
-29.352572
 33
0.0
  0
3DFACE
  5
D2
330
1F
100
AcDbEntity
  8
1
  6
CONTINUOUS
 62
    43
370
     5
100
AcDbFace
 10
-24.97522
 20
4.127429
 30
0.0
 11
-24.97522
 21
4.127429
 31
1.0
 12
-39.36363
 22
-14.74014
 32
1.0
 13
-39.36363
 23
-14.74014
 33
0.0
  0
3DFACE
  5
D3
330
1F
100
AcDbEntity
  8
1
  6
CONTINUOUS
 62
    43
370
     5
100
AcDbFace
 10
-15.82963
 20
26.021942
 30
0.0
 11
-15.82963
 21
26.021942
 31
1.0
 12
-24.97522
 22
4.127429
 32
1.0
 13
-24.97522
 23
4.127429
 33
0.0
  0
3DFACE
  5
D4
330
1F
100
AcDbEntity
  8
1
  6
CONTINUOUS
 62
    43
370
     5
100
AcDbFace
 10
-12.522197
 20
49.518164
 30
0.0
 11
-12.522197
 21
49.518164
 31
1.0
 12
-15.82963
 22
26.021942
 32
1.0
 13
-15.82963
 23
26.021942
 33
0.0
  0
LINE
  5
D5
330
1F
100
AcDbEntity
  8
1
  6
CONTINUOUS
 62
    43
370
     5
100
AcDbLine
 10
-12.522198
 20
49.518162
 30
0.0
 11
-11.91354
 21
100.543936
 31
0.0
  0
ARC
  5
D6
330
1F
100
AcDbEntity
  8
1
  6
CONTINUOUS
 62
    43
370
     5
100
AcDbCircle
 10
105.515582
 20
50.627429
 30
0.0
 40
93.0
210
0.0
220
0.0
230
-1.0
100
AcDbArc
 50
180.683417
 51
239.316583
  0
LINE
  5
D7
330
1F
100
AcDbEntity
  8
1
  6
CONTINUOUS
 62
    43
370
     5
100
AcDbLine
 10
-15.485598
 20
106.730922
 30
0.0
 11
-59.979543
 21
131.716695
 31
0.0
  0
ARC
  5
D8
330
1F
100
AcDbEntity
  8
1
  6
CONTINUOUS
 62
    43
370
     5
100
AcDbCircle
 10
105.515582
 20
50.627429
 30
-1.0
 40
93.0
210
0.0
220
0.0
230
-1.0
100
AcDbArc
 50
180.683417
 51
239.316583
  0
ARC
  5
D9
330
1F
100
AcDbEntity
  8
1
  6
CONTINUOUS
 62
    43
370
     5
100
AcDbCircle
 10
-18.913042
 20
100.627429
 30
0.0
 40
6.999999999999994
100
AcDbArc
 50
359.316583
 51
60.683417
  0
LINE
  5
DA
330
1F
100
AcDbEntity
  8
1
  6
CONTINUOUS
 62
    43
370
     5
100
AcDbLine
 10
-59.979543
 20
131.716695
 30
1.0
 11
-59.979543
 21
131.716695
 31
0.0
  0
ARC
  5
DB
330
1F
100
AcDbEntity
  8
1
  6
CONTINUOUS
 62
    43
370
     5
100
AcDbCircle
 10
-18.913042
 20
100.627429
 30
1.0
 40
6.999999999999994
100
AcDbArc
 50
359.316583
 51
60.683417
  0
LINE
  5
DC
330
1F
100
AcDbEntity
  8
1
  6
CONTINUOUS
 62
    43
370
     5
100
AcDbLine
 10
-12.522198
 20
49.518162
 30
1.0
 11
-11.91354
 21
100.543936
 31
1.0
  0
LINE
  5
DD
330
1F
100
AcDbEntity
  8
1
  6
CONTINUOUS
 62
    43
370
     5
100
AcDbLine
 10
-15.485598
 20
106.730922
 30
1.0
 11
-59.979543
 21
131.716695
 31
1.0
  0
LINE
  5
DE
330
1F
100
AcDbEntity
  8
1
  6
CONTINUOUS
 62
    43
370
     5
100
AcDbLine
 10
-12.522198
 20
49.518162
 30
1.0
 11
-12.522198
 21
49.518162
 31
0.0
  0
3DFACE
  5
DF
330
1F
100
AcDbEntity
  8
1
  6
CONTINUOUS
 62
    43
370
     5
100
AcDbFace
 10
-81.981584
 20
140.600488
 30
0.0
 11
-81.981584
 21
140.600488
 31
1.0
 12
-59.979543
 22
131.716698
 32
1.0
 13
-59.979543
 23
131.716698
 33
0.0
  0
3DFACE
  5
E0
330
1F
100
AcDbEntity
  8
1
  6
CONTINUOUS
 62
    43
370
     5
100
AcDbFace
 10
-105.515584
 20
143.627435
 30
0.0
 11
-105.515584
 21
143.627435
 31
1.0
 12
-81.981584
 22
140.600488
 32
1.0
 13
-81.981584
 23
140.600488
 33
0.0
  0
3DFACE
  5
E1
330
1F
100
AcDbEntity
  8
1
  6
CONTINUOUS
 62
    43
370
     5
100
AcDbFace
 10
-129.049584
 20
140.600488
 30
0.0
 11
-129.049584
 21
140.600488
 31
1.0
 12
-105.515584
 22
143.627435
 32
1.0
 13
-105.515584
 23
143.627435
 33
0.0
  0
3DFACE
  5
E2
330
1F
100
AcDbEntity
  8
1
  6
CONTINUOUS
 62
    43
370
     5
100
AcDbFace
 10
-151.051626
 20
131.716698
 30
0.0
 11
-151.051626
 21
131.716698
 31
1.0
 12
-129.049584
 22
140.600488
 32
1.0
 13
-129.049584
 23
140.600488
 33
0.0
  0
ARC
  5
E3
330
1F
100
AcDbEntity
  8
1
  6
CONTINUOUS
 62
    43
370
     5
100
AcDbCircle
 10
105.515582
 20
50.627429
 30
0.0
 40
93.0
210
0.0
220
0.0
230
-1.0
100
AcDbArc
 50
60.683417
 51
119.316583
  0
LINE
  5
E4
330
1F
100
AcDbEntity
  8
1
  6
CONTINUOUS
 62
    43
370
     5
100
AcDbLine
 10
-198.508966
 20
49.518162
 30
1.0
 11
-198.508966
 21
49.518162
 31
0.0
  0
LINE
  5
E5
330
1F
100
AcDbEntity
  8
1
  6
CONTINUOUS
 62
    43
370
     5
100
AcDbLine
 10
-151.051621
 20
131.716695
 30
1.0
 11
-195.545566
 21
106.730922
 31
1.0
  0
ARC
  5
E6
330
1F
100
AcDbEntity
  8
1
  6
CONTINUOUS
 62
    43
370
     5
100
AcDbCircle
 10
-192.118122
 20
100.627429
 30
1.0
 40
6.999999999999994
100
AcDbArc
 50
119.316583
 51
180.683417
  0
LINE
  5
E7
330
1F
100
AcDbEntity
  8
1
  6
CONTINUOUS
 62
    43
370
     5
100
AcDbLine
 10
-199.117624
 20
100.543936
 30
1.0
 11
-198.508966
 21
49.518162
 31
1.0
  0
LINE
  5
E8
330
1F
100
AcDbEntity
  8
1
  6
CONTINUOUS
 62
    43
370
     5
100
AcDbLine
 10
-151.051621
 20
131.716695
 30
1.0
 11
-151.051621
 21
131.716695
 31
0.0
  0
LINE
  5
E9
330
1F
100
AcDbEntity
  8
1
  6
CONTINUOUS
 62
    43
370
     5
100
AcDbLine
 10
-151.051621
 20
131.716695
 30
0.0
 11
-195.545566
 21
106.730922
 31
0.0
  0
LINE
  5
EA
330
1F
100
AcDbEntity
  8
1
  6
CONTINUOUS
 62
    43
370
     5
100
AcDbLine
 10
-199.117624
 20
100.543936
 30
0.0
 11
-198.508966
 21
49.518162
 31
0.0
  0
ARC
  5
EB
330
1F
100
AcDbEntity
  8
1
  6
CONTINUOUS
 62
    43
370
     5
100
AcDbCircle
 10
105.515582
 20
50.627429
 30
-1.0
 40
93.0
210
0.0
220
0.0
230
-1.0
100
AcDbArc
 50
60.683417
 51
119.316583
  0
ARC
  5
EC
330
1F
100
AcDbEntity
  8
1
  6
CONTINUOUS
 62
    43
370
     5
100
AcDbCircle
 10
-192.118122
 20
100.627429
 30
0.0
 40
6.999999999999994
100
AcDbArc
 50
119.316583
 51
180.683417
  0
CIRCLE
  5
ED
330
1F
100
AcDbEntity
  8
1
  6
CONTINUOUS
 62
    43
370
     5
100
AcDbCircle
 10
18.913042
 20
100.627429
 30
-1.0
 40
3.0
210
0.0
220
0.0
230
-1.0
  0
CIRCLE
  5
EE
330
1F
100
AcDbEntity
  8
1
  6
CONTINUOUS
 62
    43
370
     5
100
AcDbCircle
 10
18.913042
 20
100.627429
 30
0.0
 40
3.0
210
0.0
220
0.0
230
-1.0
  0
CIRCLE
  5
EF
330
1F
100
AcDbEntity
  8
1
  6
CONTINUOUS
 62
    43
370
     5
100
AcDbCircle
 10
192.118122
 20
100.627429
 30
-1.0
 40
3.0
210
0.0
220
0.0
230
-1.0
  0
CIRCLE
  5
F0
330
1F
100
AcDbEntity
  8
1
  6
CONTINUOUS
 62
    43
370
     5
100
AcDbCircle
 10
192.118122
 20
100.627429
 30
0.0
 40
3.0
210
0.0
220
0.0
230
-1.0
  0
3DFACE
  5
F1
330
1F
100
AcDbEntity
  8
1
  6
CONTINUOUS
 62
    43
370
     5
100
AcDbFace
 10
-103.217445
 20
-47.444209
 30
1.0
 11
-103.217445
 21
-47.444209
 31
0.0
 12
-102.515578
 22
-49.372572
 32
0.0
 13
-102.515578
 23
-49.372572
 33
1.0
  0
3DFACE
  5
F2
330
1F
100
AcDbEntity
  8
1
  6
CONTINUOUS
 62
    43
370
     5
100
AcDbFace
 10
-104.99464
 20
-46.418149
 30
1.0
 11
-104.99464
 21
-46.418149
 31
0.0
 12
-103.217445
 22
-47.444209
 32
0.0
 13
-103.217445
 23
-47.444209
 33
1.0
  0
3DFACE
  5
F3
330
1F
100
AcDbEntity
  8
1
  6
CONTINUOUS
 62
    43
370
     5
100
AcDbFace
 10
-107.01558
 20
-46.774495
 30
1.0
 11
-107.01558
 21
-46.774495
 31
0.0
 12
-104.99464
 22
-46.418149
 32
0.0
 13
-104.99464
 23
-46.418149
 33
1.0
  0
3DFACE
  5
F4
330
1F
100
AcDbEntity
  8
1
  6
CONTINUOUS
 62
    43
370
     5
100
AcDbFace
 10
-108.334661
 20
-48.346512
 30
1.0
 11
-108.334661
 21
-48.346512
 31
0.0
 12
-107.01558
 22
-46.774495
 32
0.0
 13
-107.01558
 23
-46.774495
 33
1.0
  0
3DFACE
  5
F5
330
1F
100
AcDbEntity
  8
1
  6
CONTINUOUS
 62
    43
370
     5
100
AcDbFace
 10
-108.334661
 20
-50.398633
 30
1.0
 11
-108.334661
 21
-50.398633
 31
0.0
 12
-108.334661
 22
-48.346512
 32
0.0
 13
-108.334661
 23
-48.346512
 33
1.0
  0
3DFACE
  5
F6
330
1F
100
AcDbEntity
  8
1
  6
CONTINUOUS
 62
    43
370
     5
100
AcDbFace
 10
-107.01558
 20
-51.970646
 30
1.0
 11
-107.01558
 21
-51.970646
 31
0.0
 12
-108.334661
 22
-50.398633
 32
0.0
 13
-108.334661
 23
-50.398633
 33
1.0
  0
3DFACE
  5
F7
330
1F
100
AcDbEntity
  8
1
  6
CONTINUOUS
 62
    43
370
     5
100
AcDbFace
 10
-104.99464
 20
-52.326996
 30
1.0
 11
-104.99464
 21
-52.326996
 31
0.0
 12
-107.01558
 22
-51.970646
 32
0.0
 13
-107.01558
 23
-51.970646
 33
1.0
  0
3DFACE
  5
F8
330
1F
100
AcDbEntity
  8
1
  6
CONTINUOUS
 62
    43
370
     5
100
AcDbFace
 10
-103.217445
 20
-51.300935
 30
1.0
 11
-103.217445
 21
-51.300935
 31
0.0
 12
-104.99464
 22
-52.326996
 32
0.0
 13
-104.99464
 23
-52.326996
 33
1.0
  0
3DFACE
  5
F9
330
1F
100
AcDbEntity
  8
1
  6
CONTINUOUS
 62
    43
370
     5
100
AcDbFace
 10
-102.515578
 20
-49.372572
 30
1.0
 11
-102.515578
 21
-49.372572
 31
0.0
 12
-103.217445
 22
-51.300935
 32
0.0
 13
-103.217445
 23
-51.300935
 33
1.0
  0
CIRCLE
  5
FA
330
1F
100
AcDbEntity
  8
1
  6
CONTINUOUS
 62
    43
370
     5
100
AcDbCircle
 10
105.515582
 20
-49.372571
 30
-1.0
 40
3.0
210
0.0
220
0.0
230
-1.0
  0
CIRCLE
  5
FB
330
1F
100
AcDbEntity
  8
1
  6
CONTINUOUS
 62
    43
370
     5
100
AcDbCircle
 10
-105.515582
 20
-49.372571
 30
0.0
 40
3.0
  0
3DFACE
  5
FC
330
1F
100
AcDbEntity
  8
1
  6
CONTINUOUS
 62
    43
370
     5
100
AcDbFace
 10
-27.519282
 20
72.480969
 30
1.0
 11
-27.519282
 21
72.480969
 31
0.0
 12
-24.515582
 22
50.627429
 32
0.0
 13
-24.515582
 23
50.627429
 33
1.0
  0
3DFACE
  5
FD
330
1F
100
AcDbEntity
  8
1
  6
CONTINUOUS
 62
    43
370
     5
100
AcDbFace
 10
-36.307611
 20
92.713729
 30
1.0
 11
-36.307611
 21
92.713729
 31
0.0
 12
-27.519282
 22
72.480969
 32
0.0
 13
-27.519282
 23
72.480969
 33
1.0
  0
3DFACE
  5
FE
330
1F
100
AcDbEntity
  8
1
  6
CONTINUOUS
 62
    43
370
     5
100
AcDbFace
 10
-50.228778
 20
109.825142
 30
1.0
 11
-50.228778
 21
109.825142
 31
0.0
 12
-36.307611
 22
92.713729
 32
0.0
 13
-36.307611
 23
92.713729
 33
1.0
  0
3DFACE
  5
FF
330
1F
100
AcDbEntity
  8
1
  6
CONTINUOUS
 62
    43
370
     5
100
AcDbFace
 10
-68.250313
 20
122.546129
 30
1.0
 11
-68.250313
 21
122.546129
 31
0.0
 12
-50.228778
 22
109.825142
 32
0.0
 13
-50.228778
 23
109.825142
 33
1.0
  0
3DFACE
  5
100
330
1F
100
AcDbEntity
  8
1
  6
CONTINUOUS
 62
    43
370
     5
100
AcDbFace
 10
-89.035645
 20
129.933238
 30
1.0
 11
-89.035645
 21
129.933238
 31
0.0
 12
-68.250313
 22
122.546129
 32
0.0
 13
-68.250313
 23
122.546129
 33
1.0
  0
3DFACE
  5
101
330
1F
100
AcDbEntity
  8
1
  6
CONTINUOUS
 62
    43
370
     5
100
AcDbFace
 10
-111.043215
 20
131.438598
 30
1.0
 11
-111.043215
 21
131.438598
 31
0.0
 12
-89.035645
 22
129.933238
 32
0.0
 13
-89.035645
 23
129.933238
 33
1.0
  0
3DFACE
  5
102
330
1F
100
AcDbEntity
  8
1
  6
CONTINUOUS
 62
    43
370
     5
100
AcDbFace
 10
-132.640824
 20
126.950562
 30
1.0
 11
-132.640824
 21
126.950562
 31
0.0
 12
-111.043215
 22
131.438598
 32
0.0
 13
-111.043215
 23
131.438598
 33
1.0
  0
3DFACE
  5
103
330
1F
100
AcDbEntity
  8
1
  6
CONTINUOUS
 62
    43
370
     5
100
AcDbFace
 10
-152.226686
 20
116.801992
 30
1.0
 11
-152.226686
 21
116.801992
 31
0.0
 12
-132.640824
 22
126.950562
 32
0.0
 13
-132.640824
 23
126.950562
 33
1.0
  0
3DFACE
  5
104
330
1F
100
AcDbEntity
  8
1
  6
CONTINUOUS
 62
    43
370
     5
100
AcDbFace
 10
-168.348193
 20
101.745553
 30
1.0
 11
-168.348193
 21
101.745553
 31
0.0
 12
-152.226686
 22
116.801992
 32
0.0
 13
-152.226686
 23
116.801992
 33
1.0
  0
3DFACE
  5
105
330
1F
100
AcDbEntity
  8
1
  6
CONTINUOUS
 62
    43
370
     5
100
AcDbFace
 10
-179.809704
 20
82.897916
 30
1.0
 11
-179.809704
 21
82.897916
 31
0.0
 12
-168.348193
 22
101.745553
 32
0.0
 13
-168.348193
 23
101.745553
 33
1.0
  0
3DFACE
  5
106
330
1F
100
AcDbEntity
  8
1
  6
CONTINUOUS
 62
    43
370
     5
100
AcDbFace
 10
-185.761139
 20
61.656926
 30
1.0
 11
-185.761139
 21
61.656926
 31
0.0
 12
-179.809704
 22
82.897916
 32
0.0
 13
-179.809704
 23
82.897916
 33
1.0
  0
3DFACE
  5
107
330
1F
100
AcDbEntity
  8
1
  6
CONTINUOUS
 62
    43
370
     5
100
AcDbFace
 10
-185.761139
 20
39.597929
 30
1.0
 11
-185.761139
 21
39.597929
 31
0.0
 12
-185.761139
 22
61.656926
 32
0.0
 13
-185.761139
 23
61.656926
 33
1.0
  0
3DFACE
  5
108
330
1F
100
AcDbEntity
  8
1
  6
CONTINUOUS
 62
    43
370
     5
100
AcDbFace
 10
-179.809704
 20
18.35694
 30
1.0
 11
-179.809704
 21
18.35694
 31
0.0
 12
-185.761139
 22
39.597929
 32
0.0
 13
-185.761139
 23
39.597929
 33
1.0
  0
3DFACE
  5
109
330
1F
100
AcDbEntity
  8
1
  6
CONTINUOUS
 62
    43
370
     5
100
AcDbFace
 10
-168.348193
 20
-0.490695
 30
1.0
 11
-168.348193
 21
-0.490695
 31
0.0
 12
-179.809704
 22
18.35694
 32
0.0
 13
-179.809704
 23
18.35694
 33
1.0
  0
3DFACE
  5
10A
330
1F
100
AcDbEntity
  8
1
  6
CONTINUOUS
 62
    43
370
     5
100
AcDbFace
 10
-152.226686
 20
-15.547132
 30
1.0
 11
-152.226686
 21
-15.547132
 31
0.0
 12
-168.348193
 22
-0.490695
 32
0.0
 13
-168.348193
 23
-0.490695
 33
1.0
  0
3DFACE
  5
10B
330
1F
100
AcDbEntity
  8
1
  6
CONTINUOUS
 62
    43
370
     5
100
AcDbFace
 10
-132.640824
 20
-25.695706
 30
1.0
 11
-132.640824
 21
-25.695706
 31
0.0
 12
-152.226686
 22
-15.547132
 32
0.0
 13
-152.226686
 23
-15.547132
 33
1.0
  0
3DFACE
  5
10C
330
1F
100
AcDbEntity
  8
1
  6
CONTINUOUS
 62
    43
370
     5
100
AcDbFace
 10
-111.043215
 20
-30.183742
 30
1.0
 11
-111.043215
 21
-30.183742
 31
0.0
 12
-132.640824
 22
-25.695706
 32
0.0
 13
-132.640824
 23
-25.695706
 33
1.0
  0
3DFACE
  5
10D
330
1F
100
AcDbEntity
  8
1
  6
CONTINUOUS
 62
    43
370
     5
100
AcDbFace
 10
-89.035645
 20
-28.678382
 30
1.0
 11
-89.035645
 21
-28.678382
 31
0.0
 12
-111.043215
 22
-30.183742
 32
0.0
 13
-111.043215
 23
-30.183742
 33
1.0
  0
3DFACE
  5
10E
330
1F
100
AcDbEntity
  8
1
  6
CONTINUOUS
 62
    43
370
     5
100
AcDbFace
 10
-68.250313
 20
-21.291275
 30
1.0
 11
-68.250313
 21
-21.291275
 31
0.0
 12
-89.035645
 22
-28.678382
 32
0.0
 13
-89.035645
 23
-28.678382
 33
1.0
  0
3DFACE
  5
10F
330
1F
100
AcDbEntity
  8
1
  6
CONTINUOUS
 62
    43
370
     5
100
AcDbFace
 10
-50.228778
 20
-8.570285
 30
1.0
 11
-50.228778
 21
-8.570285
 31
0.0
 12
-68.250313
 22
-21.291275
 32
0.0
 13
-68.250313
 23
-21.291275
 33
1.0
  0
3DFACE
  5
110
330
1F
100
AcDbEntity
  8
1
  6
CONTINUOUS
 62
    43
370
     5
100
AcDbFace
 10
-36.307611
 20
8.541129
 30
1.0
 11
-36.307611
 21
8.541129
 31
0.0
 12
-50.228778
 22
-8.570285
 32
0.0
 13
-50.228778
 23
-8.570285
 33
1.0
  0
3DFACE
  5
111
330
1F
100
AcDbEntity
  8
1
  6
CONTINUOUS
 62
    43
370
     5
100
AcDbFace
 10
-27.519282
 20
28.773891
 30
1.0
 11
-27.519282
 21
28.773891
 31
0.0
 12
-36.307611
 22
8.541129
 32
0.0
 13
-36.307611
 23
8.541129
 33
1.0
  0
3DFACE
  5
112
330
1F
100
AcDbEntity
  8
1
  6
CONTINUOUS
 62
    43
370
     5
100
AcDbFace
 10
-24.515582
 20
50.627429
 30
1.0
 11
-24.515582
 21
50.627429
 31
0.0
 12
-27.519282
 22
28.773891
 32
0.0
 13
-27.519282
 23
28.773891
 33
1.0
  0
CIRCLE
  5
113
330
1F
100
AcDbEntity
  8
1
  6
CONTINUOUS
 62
    43
370
     5
100
AcDbCircle
 10
105.515582
 20
50.627429
 30
-1.0
 40
81.00000000000003
210
0.0
220
0.0
230
-1.0
  0
CIRCLE
  5
114
330
1F
100
AcDbEntity
  8
1
  6
CONTINUOUS
 62
    43
370
     5
100
AcDbCircle
 10
105.515582
 20
50.627429
 30
0.0
 40
81.00000000000003
210
0.0
220
0.0
230
-1.0
  0
ENDSEC
  0
SECTION
  2
OBJECTS
  0
DICTIONARY
  5
C
330
0
100
AcDbDictionary
281
     1
  3
ACAD_GROUP
350
D
  3
ACAD_LAYOUT
350
1A
  3
ACAD_MATERIAL
350
3B
  3
ACAD_MLEADERSTYLE
350
14D
  3
ACAD_MLINESTYLE
350
17
  3
ACAD_PLOTSETTINGS
350
19
  3
ACAD_PLOTSTYLENAME
350
E
  3
ACAD_TABLESTYLE
350
14C
  3
ACAD_VISUALSTYLE
350
2A
  0
DICTIONARY
  5
D
102
{ACAD_REACTORS
330
C
102
}
330
C
100
AcDbDictionary
281
     1
  0
DICTIONARY
  5
1A
102
{ACAD_REACTORS
330
C
102
}
330
C
100
AcDbDictionary
281
     1
  3
Layout1
350
1E
  3
Layout2
350
26
  3
Model
350
22
  0
DICTIONARY
  5
3B
102
{ACAD_REACTORS
330
C
102
}
330
C
100
AcDbDictionary
281
     1
  3
BYBLOCK
350
3D
  3
BYLAYER
350
3C
  3
Global
350
3E
  0
DICTIONARY
  5
14D
102
{ACAD_REACTORS
330
C
102
}
330
C
100
AcDbDictionary
281
     1
  0
DICTIONARY
  5
17
102
{ACAD_REACTORS
330
C
102
}
330
C
100
AcDbDictionary
281
     1
  3
Standard
350
18
  0
DICTIONARY
  5
19
102
{ACAD_REACTORS
330
C
102
}
330
C
100
AcDbDictionary
281
     1
  0
ACDBDICTIONARYWDFLT
  5
E
102
{ACAD_REACTORS
330
C
102
}
330
C
100
AcDbDictionary
281
     1
  3
Normal
350
F
100
AcDbDictionaryWithDefault
340
F
  0
DICTIONARY
  5
14C
102
{ACAD_REACTORS
330
C
102
}
330
C
100
AcDbDictionary
281
     1
  0
DICTIONARY
  5
2A
102
{ACAD_REACTORS
330
C
102
}
330
C
100
AcDbDictionary
281
     1
  3
2dWireframe
350
2F
  3
3D Hidden
350
31
  3
3dWireframe
350
30
  3
Basic
350
32
  3
Brighten
350
36
  3
ColorChange
350
3A
  3
Conceptual
350
34
  3
Dim
350
35
  3
Facepattern
350
39
  3
Flat
350
2B
  3
FlatWithEdges
350
2C
  3
Gouraud
350
2D
  3
GouraudWithEdges
350
2E
  3
Linepattern
350
38
  3
Realistic
350
33
  3
Thicken
350
37
  0
LAYOUT
  5
1E
102
{ACAD_REACTORS
330
1A
102
}
330
1A
100
AcDbPlotSettings
  1

  2
none_device
  4

  6

 40
0.0
 41
0.0
 42
0.0
 43
0.0
 44
0.0
 45
0.0
 46
0.0
 47
0.0
 48
0.0
 49
0.0
140
0.0
141
0.0
142
1.0
143
1.0
 70
   688
 72
     0
 73
     0
 74
     5
  7

 75
    16
 76
     0
 77
     2
 78
   300
147
1.0
148
0.0
149
0.0
100
AcDbLayout
  1
Layout1
 70
     1
 71
     1
 10
-0.5
 20
-0.5
 11
5.0
 21
5.0
 12
0.0
 22
0.0
 32
0.0
 14
-0.5
 24
-0.5
 34
-0.5
 15
5.0
 25
5.0
 35
5.0
146
0.0
 13
0.0
 23
0.0
 33
0.0
 16
1.0
 26
0.0
 36
0.0
 17
0.0
 27
1.0
 37
0.0
 76
     0
330
1B
  0
LAYOUT
  5
26
102
{ACAD_REACTORS
330
1A
102
}
330
1A
100
AcDbPlotSettings
  1

  2
none_device
  4

  6

 40
0.0
 41
0.0
 42
0.0
 43
0.0
 44
0.0
 45
0.0
 46
0.0
 47
0.0
 48
0.0
 49
0.0
140
0.0
141
0.0
142
1.0
143
1.0
 70
   688
 72
     0
 73
     0
 74
     5
  7

 75
    16
 76
     0
 77
     2
 78
   300
147
1.0
148
0.0
149
0.0
100
AcDbLayout
  1
Layout2
 70
     1
 71
     2
 10
0.0
 20
0.0
 11
0.0
 21
0.0
 12
0.0
 22
0.0
 32
0.0
 14
0.0
 24
0.0
 34
0.0
 15
0.0
 25
0.0
 35
0.0
146
0.0
 13
0.0
 23
0.0
 33
0.0
 16
1.0
 26
0.0
 36
0.0
 17
0.0
 27
1.0
 37
0.0
 76
     0
330
23
  0
LAYOUT
  5
22
102
{ACAD_REACTORS
330
1A
102
}
330
1A
100
AcDbPlotSettings
  1

  2
none_device
  4

  6

 40
0.0
 41
0.0
 42
0.0
 43
0.0
 44
0.0
 45
0.0
 46
0.0
 47
0.0
 48
0.0
 49
0.0
140
0.0
141
0.0
142
1.0
143
1.0
 70
  1712
 72
     0
 73
     0
 74
     0
  7

 75
     0
 76
     0
 77
     2
 78
   300
147
1.0
148
0.0
149
0.0
100
AcDbLayout
  1
Model
 70
     1
 71
     0
 10
-0.5
 20
-0.5
 11
5.0
 21
5.0
 12
0.0
 22
0.0
 32
0.0
 14
-0.5
 24
-0.5
 34
-0.5
 15
5.0
 25
5.0
 35
5.0
146
0.0
 13
0.0
 23
0.0
 33
0.0
 16
1.0
 26
0.0
 36
0.0
 17
0.0
 27
1.0
 37
0.0
 76
     0
330
1F
331
29
  0
MATERIAL
  5
3D
102
{ACAD_REACTORS
330
3B
102
}
102
{ACAD_XDICTIONARY
360
148
102
}
330
3B
100
AcDbMaterial
  1
BYBLOCK
  0
MATERIAL
  5
3C
102
{ACAD_REACTORS
330
3B
102
}
102
{ACAD_XDICTIONARY
360
146
102
}
330
3B
100
AcDbMaterial
  1
BYLAYER
  0
MATERIAL
  5
3E
102
{ACAD_REACTORS
330
3B
102
}
102
{ACAD_XDICTIONARY
360
14A
102
}
330
3B
100
AcDbMaterial
  1
Global
  0
MLINESTYLE
  5
18
102
{ACAD_REACTORS
330
17
102
}
330
17
100
AcDbMlineStyle
  2
Standard
 70
     0
  3

 62
   256
 51
90.0
 52
90.0
 71
     2
 49
0.5
 62
   256
  6
BYLAYER
 49
-0.5
 62
   256
  6
BYLAYER
  0
ACDBPLACEHOLDER
  5
F
102
{ACAD_REACTORS
330
E
102
}
330
E
  0
VISUALSTYLE
  5
2F
102
{ACAD_REACTORS
330
2A
102
}
102
{ACAD_XDICTIONARY
360
12E
102
}
330
2A
100
AcDbVisualStyle
  2
2dWireframe
 70
     4
 71
     0
 72
     2
 73
     0
 90
        0
 40
-0.6
 41
-30.0
 62
     5
 63
     7
421
 16777215
 74
     1
 91
        4
 64
     7
 65
   257
 75
     1
175
     1
 42
1.0
 92
        0
 66
   257
 43
1.0
 76
     1
 77
     6
 78
     2
 67
     7
 79
     5
170
     0
171
     0
290
     0
174
     0
 93
        1
 44
0.0
173
     0
291
     0
 45
0.0
1001
ACAD
1000
AcDbSavedByObjectVersion
1070
     0
  0
VISUALSTYLE
  5
31
102
{ACAD_REACTORS
330
2A
102
}
102
{ACAD_XDICTIONARY
360
132
102
}
330
2A
100
AcDbVisualStyle
  2
3D Hidden
 70
     6
 71
     1
 72
     2
 73
     2
 90
        0
 40
-0.6
 41
-30.0
 62
     5
 63
     7
421
 16777215
 74
     2
 91
        2
 64
     7
 65
   257
 75
     2
175
     1
 42
40.0
 92
        0
 66
   257
 43
1.0
 76
     1
 77
     6
 78
     2
 67
     7
 79
     3
170
     0
171
     0
290
     0
174
     0
 93
        1
 44
0.0
173
     0
291
     0
 45
0.0
1001
ACAD
1000
AcDbSavedByObjectVersion
1070
     0
  0
VISUALSTYLE
  5
30
102
{ACAD_REACTORS
330
2A
102
}
102
{ACAD_XDICTIONARY
360
130
102
}
330
2A
100
AcDbVisualStyle
  2
3dWireframe
 70
     5
 71
     0
 72
     2
 73
     0
 90
        0
 40
-0.6
 41
-30.0
 62
     5
 63
     7
421
 16777215
 74
     1
 91
        4
 64
     7
 65
   257
 75
     1
175
     1
 42
1.0
 92
        0
 66
   257
 43
1.0
 76
     1
 77
     6
 78
     2
 67
     7
 79
     5
170
     0
171
     0
290
     0
174
     0
 93
        1
 44
0.0
173
     0
291
     0
 45
0.0
1001
ACAD
1000
AcDbSavedByObjectVersion
1070
     0
  0
VISUALSTYLE
  5
32
102
{ACAD_REACTORS
330
2A
102
}
102
{ACAD_XDICTIONARY
360
134
102
}
330
2A
100
AcDbVisualStyle
  2
Basic
 70
     7
 71
     1
 72
     0
 73
     1
 90
        0
 40
-0.6
 41
-30.0
 62
     5
 63
     7
421
 16777215
 74
     0
 91
        4
 64
     7
 65
   257
 75
     1
175
     1
 42
1.0
 92
        8
 66
     7
 43
1.0
 76
     1
 77
     6
 78
     2
 67
     7
 79
     5
170
     0
171
     0
290
     0
174
     0
 93
        1
 44
0.0
173
     0
291
     1
 45
0.0
1001
ACAD
1000
AcDbSavedByObjectVersion
1070
     0
  0
VISUALSTYLE
  5
36
102
{ACAD_REACTORS
330
2A
102
}
102
{ACAD_XDICTIONARY
360
13C
102
}
330
2A
100
AcDbVisualStyle
  2
Brighten
 70
    12
 71
     2
 72
     2
 73
     0
 90
        0
 40
-0.6
 41
-30.0
 62
     5
 63
     7
421
 16777215
 74
     1
 91
        4
 64
     7
 65
   257
 75
     1
175
     1
 42
1.0
 92
        8
 66
     7
 43
1.0
 76
     1
 77
     6
 78
     2
 67
     7
 79
     5
170
     0
171
     0
290
     0
174
     0
 93
        1
 44
50.0
173
     0
291
     1
 45
0.0
1001
ACAD
1000
AcDbSavedByObjectVersion
1070
     0
  0
VISUALSTYLE
  5
3A
102
{ACAD_REACTORS
330
2A
102
}
102
{ACAD_XDICTIONARY
360
144
102
}
330
2A
100
AcDbVisualStyle
  2
ColorChange
 70
    16
 71
     2
 72
     2
 73
     3
 90
        0
 40
-0.6
 41
-30.0
 62
     5
 63
     8
421
  8421504
 74
     1
 91
        4
 64
     7
 65
   257
 75
     1
175
     1
 42
1.0
 92
        8
 66
     8
424
  8421504
 43
1.0
 76
     1
 77
     6
 78
     2
 67
     7
 79
     5
170
     0
171
     0
290
     0
174
     0
 93
        1
 44
0.0
173
     0
291
     1
 45
0.0
1001
ACAD
1000
AcDbSavedByObjectVersion
1070
     0
  0
VISUALSTYLE
  5
34
102
{ACAD_REACTORS
330
2A
102
}
102
{ACAD_XDICTIONARY
360
138
102
}
330
2A
100
AcDbVisualStyle
  2
Conceptual
 70
     9
 71
     3
 72
     2
 73
     0
 90
        0
 40
-0.6
 41
-30.0
 62
     5
 63
     7
421
 16777215
 74
     2
 91
        2
 64
     7
 65
   257
 75
     1
175
     1
 42
40.0
 92
        8
 66
     7
 43
1.0
 76
     1
 77
     6
 78
     2
 67
     7
 79
     3
170
     0
171
     0
290
     0
174
     0
 93
        1
 44
0.0
173
     0
291
     0
 45
0.0
1001
ACAD
1000
AcDbSavedByObjectVersion
1070
     0
  0
VISUALSTYLE
  5
35
102
{ACAD_REACTORS
330
2A
102
}
102
{ACAD_XDICTIONARY
360
13A
102
}
330
2A
100
AcDbVisualStyle
  2
Dim
 70
    11
 71
     2
 72
     2
 73
     0
 90
        0
 40
-0.6
 41
-30.0
 62
     5
 63
     7
421
 16777215
 74
     1
 91
        4
 64
     7
 65
   257
 75
     1
175
     1
 42
1.0
 92
        8
 66
     7
 43
1.0
 76
     1
 77
     6
 78
     2
 67
     7
 79
     5
170
     0
171
     0
290
     0
174
     0
 93
        1
 44
-50.0
173
     0
291
     1
 45
0.0
1001
ACAD
1000
AcDbSavedByObjectVersion
1070
     0
  0
VISUALSTYLE
  5
39
102
{ACAD_REACTORS
330
2A
102
}
102
{ACAD_XDICTIONARY
360
142
102
}
330
2A
100
AcDbVisualStyle
  2
Facepattern
 70
    15
 71
     2
 72
     2
 73
     0
 90
        0
 40
-0.6
 41
-30.0
 62
     5
 63
     7
421
 16777215
 74
     1
 91
        4
 64
     7
 65
   257
 75
     1
175
     1
 42
1.0
 92
        8
 66
     7
 43
1.0
 76
     1
 77
     6
 78
     2
 67
     7
 79
     5
170
     0
171
     0
290
     0
174
     0
 93
        1
 44
0.0
173
     0
291
     1
 45
0.0
1001
ACAD
1000
AcDbSavedByObjectVersion
1070
     0
  0
VISUALSTYLE
  5
2B
102
{ACAD_REACTORS
330
2A
102
}
102
{ACAD_XDICTIONARY
360
126
102
}
330
2A
100
AcDbVisualStyle
  2
Flat
 70
     0
 71
     2
 72
     1
 73
     1
 90
        2
 40
-0.6
 41
30.0
 62
     5
 63
     7
421
 16777215
 74
     0
 91
        4
 64
     7
 65
   257
 75
     1
175
     1
 42
1.0
 92
        8
 66
     7
 43
1.0
 76
     1
 77
     6
 78
     2
 67
     7
 79
     5
170
     0
171
     0
290
     0
174
     0
 93
       13
 44
0.0
173
     0
291
     1
 45
0.0
1001
ACAD
1000
AcDbSavedByObjectVersion
1070
     0
  0
VISUALSTYLE
  5
2C
102
{ACAD_REACTORS
330
2A
102
}
102
{ACAD_XDICTIONARY
360
128
102
}
330
2A
100
AcDbVisualStyle
  2
FlatWithEdges
 70
     1
 71
     2
 72
     1
 73
     1
 90
        2
 40
-0.6
 41
30.0
 62
     5
 63
     7
421
 16777215
 74
     1
 91
        4
 64
     7
 65
   257
 75
     1
175
     1
 42
1.0
 92
        0
 66
   257
 43
1.0
 76
     1
 77
     6
 78
     2
 67
     7
 79
     5
170
     0
171
     0
290
     0
174
     0
 93
       13
 44
0.0
173
     0
291
     1
 45
0.0
1001
ACAD
1000
AcDbSavedByObjectVersion
1070
     0
  0
VISUALSTYLE
  5
2D
102
{ACAD_REACTORS
330
2A
102
}
102
{ACAD_XDICTIONARY
360
12A
102
}
330
2A
100
AcDbVisualStyle
  2
Gouraud
 70
     2
 71
     2
 72
     2
 73
     1
 90
        2
 40
-0.6
 41
30.0
 62
     5
 63
     7
421
 16777215
 74
     0
 91
        4
 64
     7
 65
   257
 75
     1
175
     1
 42
1.0
 92
        0
 66
     7
 43
1.0
 76
     1
 77
     6
 78
     2
 67
     7
 79
     5
170
     0
171
     0
290
     0
174
     0
 93
       13
 44
0.0
173
     0
291
     1
 45
0.0
1001
ACAD
1000
AcDbSavedByObjectVersion
1070
     0
  0
VISUALSTYLE
  5
2E
102
{ACAD_REACTORS
330
2A
102
}
102
{ACAD_XDICTIONARY
360
12C
102
}
330
2A
100
AcDbVisualStyle
  2
GouraudWithEdges
 70
     3
 71
     2
 72
     2
 73
     1
 90
        2
 40
-0.6
 41
30.0
 62
     5
 63
     7
421
 16777215
 74
     1
 91
        4
 64
     7
 65
   257
 75
     1
175
     1
 42
1.0
 92
        0
 66
   257
 43
1.0
 76
     1
 77
     6
 78
     2
 67
     7
 79
     5
170
     0
171
     0
290
     0
174
     0
 93
       13
 44
0.0
173
     0
291
     1
 45
0.0
1001
ACAD
1000
AcDbSavedByObjectVersion
1070
     0
  0
VISUALSTYLE
  5
38
102
{ACAD_REACTORS
330
2A
102
}
102
{ACAD_XDICTIONARY
360
140
102
}
330
2A
100
AcDbVisualStyle
  2
Linepattern
 70
    14
 71
     2
 72
     2
 73
     0
 90
        0
 40
-0.6
 41
-30.0
 62
     5
 63
     7
421
 16777215
 74
     1
 91
        4
 64
     7
 65
   257
 75
     7
175
     7
 42
1.0
 92
        8
 66
     7
 43
1.0
 76
     1
 77
     6
 78
     2
 67
     7
 79
     5
170
     0
171
     0
290
     0
174
     0
 93
        1
 44
0.0
173
     0
291
     1
 45
0.0
1001
ACAD
1000
AcDbSavedByObjectVersion
1070
     0
  0
VISUALSTYLE
  5
33
102
{ACAD_REACTORS
330
2A
102
}
102
{ACAD_XDICTIONARY
360
136
102
}
330
2A
100
AcDbVisualStyle
  2
Realistic
 70
     8
 71
     2
 72
     2
 73
     0
 90
        0
 40
-0.6
 41
-30.0
 62
     5
 63
     7
421
 16777215
 74
     1
 91
        0
 64
     7
 65
   257
 75
     1
175
     1
 42
1.0
 92
        8
 66
     8
424
  7895160
 43
1.0
 76
     1
 77
     6
 78
     2
 67
     7
 79
     5
170
     0
171
     0
290
     0
174
     0
 93
       13
 44
0.0
173
     0
291
     0
 45
0.0
1001
ACAD
1000
AcDbSavedByObjectVersion
1070
     0
  0
VISUALSTYLE
  5
37
102
{ACAD_REACTORS
330
2A
102
}
102
{ACAD_XDICTIONARY
360
13E
102
}
330
2A
100
AcDbVisualStyle
  2
Thicken
 70
    13
 71
     2
 72
     2
 73
     0
 90
        0
 40
-0.6
 41
-30.0
 62
     5
 63
     7
421
 16777215
 74
     1
 91
        4
 64
     7
 65
   257
 75
     1
175
     1
 42
1.0
 92
       12
 66
     7
 43
1.0
 76
     1
 77
     6
 78
     2
 67
     7
 79
     5
170
     0
171
     0
290
     0
174
     0
 93
        1
 44
0.0
173
     0
291
     1
 45
0.0
1001
ACAD
1000
AcDbSavedByObjectVersion
1070
     0
  0
DICTIONARY
  5
148
330
3D
100
AcDbDictionary
280
     1
281
     1
  3
ACAD_XREC_ROUNDTRIP
360
149
  0
DICTIONARY
  5
146
330
3C
100
AcDbDictionary
280
     1
281
     1
  3
ACAD_XREC_ROUNDTRIP
360
147
  0
DICTIONARY
  5
14A
330
3E
100
AcDbDictionary
280
     1
281
     1
  3
ACAD_XREC_ROUNDTRIP
360
14B
  0
DICTIONARY
  5
12E
330
2F
100
AcDbDictionary
280
     1
281
     1
  3
ACAD_XREC_ROUNDTRIP
360
12F
  0
DICTIONARY
  5
132
330
31
100
AcDbDictionary
280
     1
281
     1
  3
ACAD_XREC_ROUNDTRIP
360
133
  0
DICTIONARY
  5
130
330
30
100
AcDbDictionary
280
     1
281
     1
  3
ACAD_XREC_ROUNDTRIP
360
131
  0
DICTIONARY
  5
134
330
32
100
AcDbDictionary
280
     1
281
     1
  3
ACAD_XREC_ROUNDTRIP
360
135
  0
DICTIONARY
  5
13C
330
36
100
AcDbDictionary
280
     1
281
     1
  3
ACAD_XREC_ROUNDTRIP
360
13D
  0
DICTIONARY
  5
144
330
3A
100
AcDbDictionary
280
     1
281
     1
  3
ACAD_XREC_ROUNDTRIP
360
145
  0
DICTIONARY
  5
138
330
34
100
AcDbDictionary
280
     1
281
     1
  3
ACAD_XREC_ROUNDTRIP
360
139
  0
DICTIONARY
  5
13A
330
35
100
AcDbDictionary
280
     1
281
     1
  3
ACAD_XREC_ROUNDTRIP
360
13B
  0
DICTIONARY
  5
142
330
39
100
AcDbDictionary
280
     1
281
     1
  3
ACAD_XREC_ROUNDTRIP
360
143
  0
DICTIONARY
  5
126
330
2B
100
AcDbDictionary
280
     1
281
     1
  3
ACAD_XREC_ROUNDTRIP
360
127
  0
DICTIONARY
  5
128
330
2C
100
AcDbDictionary
280
     1
281
     1
  3
ACAD_XREC_ROUNDTRIP
360
129
  0
DICTIONARY
  5
12A
330
2D
100
AcDbDictionary
280
     1
281
     1
  3
ACAD_XREC_ROUNDTRIP
360
12B
  0
DICTIONARY
  5
12C
330
2E
100
AcDbDictionary
280
     1
281
     1
  3
ACAD_XREC_ROUNDTRIP
360
12D
  0
DICTIONARY
  5
140
330
38
100
AcDbDictionary
280
     1
281
     1
  3
ACAD_XREC_ROUNDTRIP
360
141
  0
DICTIONARY
  5
136
330
33
100
AcDbDictionary
280
     1
281
     1
  3
ACAD_XREC_ROUNDTRIP
360
137
  0
DICTIONARY
  5
13E
330
37
100
AcDbDictionary
280
     1
281
     1
  3
ACAD_XREC_ROUNDTRIP
360
13F
  0
XRECORD
  5
149
102
{ACAD_REACTORS
330
148
102
}
330
148
100
AcDbXrecord
280
     1
102
MATERIAL
148
0.0
149
0.0
149
0.0
 93
        0
 94
      127
282
     0
 72
     1
 77
     1
171
     1
175
     1
179
     1
273
     0
  0
XRECORD
  5
147
102
{ACAD_REACTORS
330
146
102
}
330
146
100
AcDbXrecord
280
     1
102
MATERIAL
148
0.0
149
0.0
149
0.0
 93
        0
 94
      127
282
     0
 72
     1
 77
     1
171
     1
175
     1
179
     1
273
     0
  0
XRECORD
  5
14B
102
{ACAD_REACTORS
330
14A
102
}
330
14A
100
AcDbXrecord
280
     1
102
MATERIAL
148
0.0
149
0.0
149
0.0
 93
        0
 94
      127
282
     0
 72
     1
 77
     1
171
     1
175
     1
179
     1
273
     0
  0
XRECORD
  5
12F
102
{ACAD_REACTORS
330
12E
102
}
330
12E
100
AcDbXrecord
280
     1
102
RTVSPropertyOp0
 70
     1
102
RTVSPropertyOp1
 70
     1
102
RTVSPropertyOp2
 70
     1
102
RTVSPropertyOp3
 70
     1
102
RTVSPropertyOp4
 70
     1
102
RTVSPropertyOp5
 70
     1
102
RTVSPropertyOp6
 70
     1
102
RTVSPropertyOp7
 70
     1
102
RTVSPropertyOp8
 70
     1
102
RTVSPropertyOp9
 70
     1
102
RTVSPropertyOp10
 70
     1
102
RTVSPropertyOp11
 70
     1
102
RTVSPropertyOp12
 70
     1
102
RTVSPropertyOp13
 70
     1
102
RTVSPropertyOp14
 70
     1
102
RTVSPropertyOp15
 70
     1
102
RTVSPropertyOp16
 70
     1
102
RTVSPropertyOp17
 70
     1
102
RTVSPropertyOp18
 70
     1
102
RTVSPropertyOp19
 70
     1
102
RTVSPropertyOp20
 70
     1
102
RTVSPropertyOp21
 70
     1
102
RTVSPropertyOp22
 70
     1
102
RTVSPropertyOp23
 70
     1
102
RTVSPropertyOp24
 70
     1
102
RTVSPropertyOp25
 70
     1
102
RTVSPropertyOp26
 70
     1
102
RTVSPropertyOp27
 70
     1
  0
XRECORD
  5
133
102
{ACAD_REACTORS
330
132
102
}
330
132
100
AcDbXrecord
280
     1
102
RTVSPropertyOp0
 70
     1
102
RTVSPropertyOp1
 70
     1
102
RTVSPropertyOp2
 70
     1
102
RTVSPropertyOp3
 70
     1
102
RTVSPropertyOp4
 70
     1
102
RTVSPropertyOp5
 70
     1
102
RTVSPropertyOp6
 70
     1
102
RTVSPropertyOp7
 70
     1
102
RTVSPropertyOp8
 70
     1
102
RTVSPropertyOp9
 70
     1
102
RTVSPropertyOp10
 70
     1
102
RTVSPropertyOp11
 70
     1
102
RTVSPropertyOp12
 70
     1
102
RTVSPropertyOp13
 70
     1
102
RTVSPropertyOp14
 70
     1
102
RTVSPropertyOp15
 70
     1
102
RTVSPropertyOp16
 70
     1
102
RTVSPropertyOp17
 70
     1
102
RTVSPropertyOp18
 70
     1
102
RTVSPropertyOp19
 70
     1
102
RTVSPropertyOp20
 70
     1
102
RTVSPropertyOp21
 70
     1
102
RTVSPropertyOp22
 70
     1
102
RTVSPropertyOp23
 70
     1
102
RTVSPropertyOp24
 70
     1
102
RTVSPropertyOp25
 70
     1
102
RTVSPropertyOp26
 70
     1
102
RTVSPropertyOp27
 70
     1
  0
XRECORD
  5
131
102
{ACAD_REACTORS
330
130
102
}
330
130
100
AcDbXrecord
280
     1
102
RTVSPropertyOp0
 70
     1
102
RTVSPropertyOp1
 70
     1
102
RTVSPropertyOp2
 70
     1
102
RTVSPropertyOp3
 70
     1
102
RTVSPropertyOp4
 70
     1
102
RTVSPropertyOp5
 70
     1
102
RTVSPropertyOp6
 70
     1
102
RTVSPropertyOp7
 70
     1
102
RTVSPropertyOp8
 70
     1
102
RTVSPropertyOp9
 70
     1
102
RTVSPropertyOp10
 70
     1
102
RTVSPropertyOp11
 70
     1
102
RTVSPropertyOp12
 70
     1
102
RTVSPropertyOp13
 70
     1
102
RTVSPropertyOp14
 70
     1
102
RTVSPropertyOp15
 70
     1
102
RTVSPropertyOp16
 70
     1
102
RTVSPropertyOp17
 70
     1
102
RTVSPropertyOp18
 70
     1
102
RTVSPropertyOp19
 70
     1
102
RTVSPropertyOp20
 70
     1
102
RTVSPropertyOp21
 70
     1
102
RTVSPropertyOp22
 70
     1
102
RTVSPropertyOp23
 70
     1
102
RTVSPropertyOp24
 70
     1
102
RTVSPropertyOp25
 70
     1
102
RTVSPropertyOp26
 70
     1
102
RTVSPropertyOp27
 70
     1
  0
XRECORD
  5
135
102
{ACAD_REACTORS
330
134
102
}
330
134
100
AcDbXrecord
280
     1
102
RTVSPropertyOp0
 70
     1
102
RTVSPropertyOp1
 70
     1
102
RTVSPropertyOp2
 70
     1
102
RTVSPropertyOp3
 70
     1
102
RTVSPropertyOp4
 70
     1
102
RTVSPropertyOp5
 70
     1
102
RTVSPropertyOp6
 70
     1
102
RTVSPropertyOp7
 70
     1
102
RTVSPropertyOp8
 70
     1
102
RTVSPropertyOp9
 70
     1
102
RTVSPropertyOp10
 70
     1
102
RTVSPropertyOp11
 70
     1
102
RTVSPropertyOp12
 70
     1
102
RTVSPropertyOp13
 70
     1
102
RTVSPropertyOp14
 70
     1
102
RTVSPropertyOp15
 70
     1
102
RTVSPropertyOp16
 70
     1
102
RTVSPropertyOp17
 70
     1
102
RTVSPropertyOp18
 70
     1
102
RTVSPropertyOp19
 70
     1
102
RTVSPropertyOp20
 70
     1
102
RTVSPropertyOp21
 70
     1
102
RTVSPropertyOp22
 70
     1
102
RTVSPropertyOp23
 70
     1
102
RTVSPropertyOp24
 70
     1
102
RTVSPropertyOp25
 70
     1
102
RTVSPropertyOp26
 70
     1
102
RTVSPropertyOp27
 70
     1
  0
XRECORD
  5
13D
102
{ACAD_REACTORS
330
13C
102
}
330
13C
100
AcDbXrecord
280
     1
102
RTVSPropertyOp0
 70
     1
102
RTVSPropertyOp1
 70
     1
102
RTVSPropertyOp2
 70
     1
102
RTVSPropertyOp3
 70
     1
102
RTVSPropertyOp4
 70
     1
102
RTVSPropertyOp5
 70
     1
102
RTVSPropertyOp6
 70
     1
102
RTVSPropertyOp7
 70
     1
102
RTVSPropertyOp8
 70
     1
102
RTVSPropertyOp9
 70
     1
102
RTVSPropertyOp10
 70
     1
102
RTVSPropertyOp11
 70
     1
102
RTVSPropertyOp12
 70
     1
102
RTVSPropertyOp13
 70
     1
102
RTVSPropertyOp14
 70
     1
102
RTVSPropertyOp15
 70
     1
102
RTVSPropertyOp16
 70
     1
102
RTVSPropertyOp17
 70
     1
102
RTVSPropertyOp18
 70
     1
102
RTVSPropertyOp19
 70
     1
102
RTVSPropertyOp20
 70
     1
102
RTVSPropertyOp21
 70
     1
102
RTVSPropertyOp22
 70
     1
102
RTVSPropertyOp23
 70
     1
102
RTVSPropertyOp24
 70
     1
102
RTVSPropertyOp25
 70
     1
102
RTVSPropertyOp26
 70
     1
102
RTVSPropertyOp27
 70
     1
  0
XRECORD
  5
145
102
{ACAD_REACTORS
330
144
102
}
330
144
100
AcDbXrecord
280
     1
102
RTVSPropertyOp0
 70
     1
102
RTVSPropertyOp1
 70
     1
102
RTVSPropertyOp2
 70
     1
102
RTVSPropertyOp3
 70
     1
102
RTVSPropertyOp4
 70
     1
102
RTVSPropertyOp5
 70
     1
102
RTVSPropertyOp6
 70
     1
102
RTVSPropertyOp7
 70
     1
102
RTVSPropertyOp8
 70
     1
102
RTVSPropertyOp9
 70
     1
102
RTVSPropertyOp10
 70
     1
102
RTVSPropertyOp11
 70
     1
102
RTVSPropertyOp12
 70
     1
102
RTVSPropertyOp13
 70
     1
102
RTVSPropertyOp14
 70
     1
102
RTVSPropertyOp15
 70
     1
102
RTVSPropertyOp16
 70
     1
102
RTVSPropertyOp17
 70
     1
102
RTVSPropertyOp18
 70
     1
102
RTVSPropertyOp19
 70
     1
102
RTVSPropertyOp20
 70
     1
102
RTVSPropertyOp21
 70
     1
102
RTVSPropertyOp22
 70
     1
102
RTVSPropertyOp23
 70
     1
102
RTVSPropertyOp24
 70
     1
102
RTVSPropertyOp25
 70
     1
102
RTVSPropertyOp26
 70
     1
102
RTVSPropertyOp27
 70
     1
  0
XRECORD
  5
139
102
{ACAD_REACTORS
330
138
102
}
330
138
100
AcDbXrecord
280
     1
102
RTVSPropertyOp0
 70
     1
102
RTVSPropertyOp1
 70
     1
102
RTVSPropertyOp2
 70
     1
102
RTVSPropertyOp3
 70
     1
102
RTVSPropertyOp4
 70
     1
102
RTVSPropertyOp5
 70
     1
102
RTVSPropertyOp6
 70
     1
102
RTVSPropertyOp7
 70
     1
102
RTVSPropertyOp8
 70
     1
102
RTVSPropertyOp9
 70
     1
102
RTVSPropertyOp10
 70
     1
102
RTVSPropertyOp11
 70
     1
102
RTVSPropertyOp12
 70
     1
102
RTVSPropertyOp13
 70
     1
102
RTVSPropertyOp14
 70
     1
102
RTVSPropertyOp15
 70
     1
102
RTVSPropertyOp16
 70
     1
102
RTVSPropertyOp17
 70
     1
102
RTVSPropertyOp18
 70
     1
102
RTVSPropertyOp19
 70
     1
102
RTVSPropertyOp20
 70
     1
102
RTVSPropertyOp21
 70
     1
102
RTVSPropertyOp22
 70
     1
102
RTVSPropertyOp23
 70
     1
102
RTVSPropertyOp24
 70
     1
102
RTVSPropertyOp25
 70
     1
102
RTVSPropertyOp26
 70
     1
102
RTVSPropertyOp27
 70
     1
  0
XRECORD
  5
13B
102
{ACAD_REACTORS
330
13A
102
}
330
13A
100
AcDbXrecord
280
     1
102
RTVSPropertyOp0
 70
     1
102
RTVSPropertyOp1
 70
     1
102
RTVSPropertyOp2
 70
     1
102
RTVSPropertyOp3
 70
     1
102
RTVSPropertyOp4
 70
     1
102
RTVSPropertyOp5
 70
     1
102
RTVSPropertyOp6
 70
     1
102
RTVSPropertyOp7
 70
     1
102
RTVSPropertyOp8
 70
     1
102
RTVSPropertyOp9
 70
     1
102
RTVSPropertyOp10
 70
     1
102
RTVSPropertyOp11
 70
     1
102
RTVSPropertyOp12
 70
     1
102
RTVSPropertyOp13
 70
     1
102
RTVSPropertyOp14
 70
     1
102
RTVSPropertyOp15
 70
     1
102
RTVSPropertyOp16
 70
     1
102
RTVSPropertyOp17
 70
     1
102
RTVSPropertyOp18
 70
     1
102
RTVSPropertyOp19
 70
     1
102
RTVSPropertyOp20
 70
     1
102
RTVSPropertyOp21
 70
     1
102
RTVSPropertyOp22
 70
     1
102
RTVSPropertyOp23
 70
     1
102
RTVSPropertyOp24
 70
     1
102
RTVSPropertyOp25
 70
     1
102
RTVSPropertyOp26
 70
     1
102
RTVSPropertyOp27
 70
     1
  0
XRECORD
  5
143
102
{ACAD_REACTORS
330
142
102
}
330
142
100
AcDbXrecord
280
     1
102
RTVSPropertyOp0
 70
     1
102
RTVSPropertyOp1
 70
     1
102
RTVSPropertyOp2
 70
     1
102
RTVSPropertyOp3
 70
     1
102
RTVSPropertyOp4
 70
     1
102
RTVSPropertyOp5
 70
     1
102
RTVSPropertyOp6
 70
     1
102
RTVSPropertyOp7
 70
     1
102
RTVSPropertyOp8
 70
     1
102
RTVSPropertyOp9
 70
     1
102
RTVSPropertyOp10
 70
     1
102
RTVSPropertyOp11
 70
     1
102
RTVSPropertyOp12
 70
     1
102
RTVSPropertyOp13
 70
     1
102
RTVSPropertyOp14
 70
     1
102
RTVSPropertyOp15
 70
     1
102
RTVSPropertyOp16
 70
     1
102
RTVSPropertyOp17
 70
     1
102
RTVSPropertyOp18
 70
     1
102
RTVSPropertyOp19
 70
     1
102
RTVSPropertyOp20
 70
     1
102
RTVSPropertyOp21
 70
     1
102
RTVSPropertyOp22
 70
     1
102
RTVSPropertyOp23
 70
     1
102
RTVSPropertyOp24
 70
     1
102
RTVSPropertyOp25
 70
     1
102
RTVSPropertyOp26
 70
     1
102
RTVSPropertyOp27
 70
     1
  0
XRECORD
  5
127
102
{ACAD_REACTORS
330
126
102
}
330
126
100
AcDbXrecord
280
     1
102
RTVSPropertyOp0
 70
     1
102
RTVSPropertyOp1
 70
     1
102
RTVSPropertyOp2
 70
     1
102
RTVSPropertyOp3
 70
     1
102
RTVSPropertyOp4
 70
     1
102
RTVSPropertyOp5
 70
     1
102
RTVSPropertyOp6
 70
     1
102
RTVSPropertyOp7
 70
     1
102
RTVSPropertyOp8
 70
     1
102
RTVSPropertyOp9
 70
     1
102
RTVSPropertyOp10
 70
     1
102
RTVSPropertyOp11
 70
     1
102
RTVSPropertyOp12
 70
     1
102
RTVSPropertyOp13
 70
     1
102
RTVSPropertyOp14
 70
     1
102
RTVSPropertyOp15
 70
     1
102
RTVSPropertyOp16
 70
     1
102
RTVSPropertyOp17
 70
     1
102
RTVSPropertyOp18
 70
     1
102
RTVSPropertyOp19
 70
     1
102
RTVSPropertyOp20
 70
     1
102
RTVSPropertyOp21
 70
     1
102
RTVSPropertyOp22
 70
     1
102
RTVSPropertyOp23
 70
     1
102
RTVSPropertyOp24
 70
     1
102
RTVSPropertyOp25
 70
     1
102
RTVSPropertyOp26
 70
     1
102
RTVSPropertyOp27
 70
     1
  0
XRECORD
  5
129
102
{ACAD_REACTORS
330
128
102
}
330
128
100
AcDbXrecord
280
     1
102
RTVSPropertyOp0
 70
     1
102
RTVSPropertyOp1
 70
     1
102
RTVSPropertyOp2
 70
     1
102
RTVSPropertyOp3
 70
     1
102
RTVSPropertyOp4
 70
     1
102
RTVSPropertyOp5
 70
     1
102
RTVSPropertyOp6
 70
     1
102
RTVSPropertyOp7
 70
     1
102
RTVSPropertyOp8
 70
     1
102
RTVSPropertyOp9
 70
     1
102
RTVSPropertyOp10
 70
     1
102
RTVSPropertyOp11
 70
     1
102
RTVSPropertyOp12
 70
     1
102
RTVSPropertyOp13
 70
     1
102
RTVSPropertyOp14
 70
     1
102
RTVSPropertyOp15
 70
     1
102
RTVSPropertyOp16
 70
     1
102
RTVSPropertyOp17
 70
     1
102
RTVSPropertyOp18
 70
     1
102
RTVSPropertyOp19
 70
     1
102
RTVSPropertyOp20
 70
     1
102
RTVSPropertyOp21
 70
     1
102
RTVSPropertyOp22
 70
     1
102
RTVSPropertyOp23
 70
     1
102
RTVSPropertyOp24
 70
     1
102
RTVSPropertyOp25
 70
     1
102
RTVSPropertyOp26
 70
     1
102
RTVSPropertyOp27
 70
     1
  0
XRECORD
  5
12B
102
{ACAD_REACTORS
330
12A
102
}
330
12A
100
AcDbXrecord
280
     1
102
RTVSPropertyOp0
 70
     1
102
RTVSPropertyOp1
 70
     1
102
RTVSPropertyOp2
 70
     1
102
RTVSPropertyOp3
 70
     1
102
RTVSPropertyOp4
 70
     1
102
RTVSPropertyOp5
 70
     1
102
RTVSPropertyOp6
 70
     1
102
RTVSPropertyOp7
 70
     1
102
RTVSPropertyOp8
 70
     1
102
RTVSPropertyOp9
 70
     1
102
RTVSPropertyOp10
 70
     1
102
RTVSPropertyOp11
 70
     1
102
RTVSPropertyOp12
 70
     1
102
RTVSPropertyOp13
 70
     1
102
RTVSPropertyOp14
 70
     1
102
RTVSPropertyOp15
 70
     1
102
RTVSPropertyOp16
 70
     1
102
RTVSPropertyOp17
 70
     1
102
RTVSPropertyOp18
 70
     1
102
RTVSPropertyOp19
 70
     1
102
RTVSPropertyOp20
 70
     1
102
RTVSPropertyOp21
 70
     1
102
RTVSPropertyOp22
 70
     1
102
RTVSPropertyOp23
 70
     1
102
RTVSPropertyOp24
 70
     1
102
RTVSPropertyOp25
 70
     1
102
RTVSPropertyOp26
 70
     1
102
RTVSPropertyOp27
 70
     1
  0
XRECORD
  5
12D
102
{ACAD_REACTORS
330
12C
102
}
330
12C
100
AcDbXrecord
280
     1
102
RTVSPropertyOp0
 70
     1
102
RTVSPropertyOp1
 70
     1
102
RTVSPropertyOp2
 70
     1
102
RTVSPropertyOp3
 70
     1
102
RTVSPropertyOp4
 70
     1
102
RTVSPropertyOp5
 70
     1
102
RTVSPropertyOp6
 70
     1
102
RTVSPropertyOp7
 70
     1
102
RTVSPropertyOp8
 70
     1
102
RTVSPropertyOp9
 70
     1
102
RTVSPropertyOp10
 70
     1
102
RTVSPropertyOp11
 70
     1
102
RTVSPropertyOp12
 70
     1
102
RTVSPropertyOp13
 70
     1
102
RTVSPropertyOp14
 70
     1
102
RTVSPropertyOp15
 70
     1
102
RTVSPropertyOp16
 70
     1
102
RTVSPropertyOp17
 70
     1
102
RTVSPropertyOp18
 70
     1
102
RTVSPropertyOp19
 70
     1
102
RTVSPropertyOp20
 70
     1
102
RTVSPropertyOp21
 70
     1
102
RTVSPropertyOp22
 70
     1
102
RTVSPropertyOp23
 70
     1
102
RTVSPropertyOp24
 70
     1
102
RTVSPropertyOp25
 70
     1
102
RTVSPropertyOp26
 70
     1
102
RTVSPropertyOp27
 70
     1
  0
XRECORD
  5
141
102
{ACAD_REACTORS
330
140
102
}
330
140
100
AcDbXrecord
280
     1
102
RTVSPropertyOp0
 70
     1
102
RTVSPropertyOp1
 70
     1
102
RTVSPropertyOp2
 70
     1
102
RTVSPropertyOp3
 70
     1
102
RTVSPropertyOp4
 70
     1
102
RTVSPropertyOp5
 70
     1
102
RTVSPropertyOp6
 70
     1
102
RTVSPropertyOp7
 70
     1
102
RTVSPropertyOp8
 70
     1
102
RTVSPropertyOp9
 70
     1
102
RTVSPropertyOp10
 70
     1
102
RTVSPropertyOp11
 70
     1
102
RTVSPropertyOp12
 70
     1
102
RTVSPropertyOp13
 70
     1
102
RTVSPropertyOp14
 70
     1
102
RTVSPropertyOp15
 70
     1
102
RTVSPropertyOp16
 70
     1
102
RTVSPropertyOp17
 70
     1
102
RTVSPropertyOp18
 70
     1
102
RTVSPropertyOp19
 70
     1
102
RTVSPropertyOp20
 70
     1
102
RTVSPropertyOp21
 70
     1
102
RTVSPropertyOp22
 70
     1
102
RTVSPropertyOp23
 70
     1
102
RTVSPropertyOp24
 70
     1
102
RTVSPropertyOp25
 70
     1
102
RTVSPropertyOp26
 70
     1
102
RTVSPropertyOp27
 70
     1
  0
XRECORD
  5
137
102
{ACAD_REACTORS
330
136
102
}
330
136
100
AcDbXrecord
280
     1
102
RTVSPropertyOp0
 70
     1
102
RTVSPropertyOp1
 70
     1
102
RTVSPropertyOp2
 70
     1
102
RTVSPropertyOp3
 70
     1
102
RTVSPropertyOp4
 70
     1
102
RTVSPropertyOp5
 70
     1
102
RTVSPropertyOp6
 70
     1
102
RTVSPropertyOp7
 70
     1
102
RTVSPropertyOp8
 70
     1
102
RTVSPropertyOp9
 70
     1
102
RTVSPropertyOp10
 70
     1
102
RTVSPropertyOp11
 70
     1
102
RTVSPropertyOp12
 70
     1
102
RTVSPropertyOp13
 70
     1
102
RTVSPropertyOp14
 70
     1
102
RTVSPropertyOp15
 70
     1
102
RTVSPropertyOp16
 70
     1
102
RTVSPropertyOp17
 70
     1
102
RTVSPropertyOp18
 70
     1
102
RTVSPropertyOp19
 70
     1
102
RTVSPropertyOp20
 70
     1
102
RTVSPropertyOp21
 70
     1
102
RTVSPropertyOp22
 70
     1
102
RTVSPropertyOp23
 70
     1
102
RTVSPropertyOp24
 70
     1
102
RTVSPropertyOp25
 70
     1
102
RTVSPropertyOp26
 70
     1
102
RTVSPropertyOp27
 70
     1
  0
XRECORD
  5
13F
102
{ACAD_REACTORS
330
13E
102
}
330
13E
100
AcDbXrecord
280
     1
102
RTVSPropertyOp0
 70
     1
102
RTVSPropertyOp1
 70
     1
102
RTVSPropertyOp2
 70
     1
102
RTVSPropertyOp3
 70
     1
102
RTVSPropertyOp4
 70
     1
102
RTVSPropertyOp5
 70
     1
102
RTVSPropertyOp6
 70
     1
102
RTVSPropertyOp7
 70
     1
102
RTVSPropertyOp8
 70
     1
102
RTVSPropertyOp9
 70
     1
102
RTVSPropertyOp10
 70
     1
102
RTVSPropertyOp11
 70
     1
102
RTVSPropertyOp12
 70
     1
102
RTVSPropertyOp13
 70
     1
102
RTVSPropertyOp14
 70
     1
102
RTVSPropertyOp15
 70
     1
102
RTVSPropertyOp16
 70
     1
102
RTVSPropertyOp17
 70
     1
102
RTVSPropertyOp18
 70
     1
102
RTVSPropertyOp19
 70
     1
102
RTVSPropertyOp20
 70
     1
102
RTVSPropertyOp21
 70
     1
102
RTVSPropertyOp22
 70
     1
102
RTVSPropertyOp23
 70
     1
102
RTVSPropertyOp24
 70
     1
102
RTVSPropertyOp25
 70
     1
102
RTVSPropertyOp26
 70
     1
102
RTVSPropertyOp27
 70
     1
  0
ENDSEC
  0
EOF
